<mxfile host="app.diagrams.net" modified="2021-01-29T13:47:52.112Z" agent="5.0 (Windows)" etag="x_Mp_odtgqhZ4z_Sh5_x" version="14.2.7" type="github" pages="7">
  <diagram name="Eva 2.0 High Level" id="u2OVcTeATrK4WQEmrBUq">
    <mxGraphModel dx="2441" dy="1482" grid="0" gridSize="10" guides="1" tooltips="1" connect="1" arrows="1" fold="1" page="0" pageScale="1" pageWidth="1400" pageHeight="1700" math="0" shadow="0">
      <root>
        <mxCell id="6W5ZjQAP1qN65vsEq8g1-0" />
        <mxCell id="6W5ZjQAP1qN65vsEq8g1-1" parent="6W5ZjQAP1qN65vsEq8g1-0" />
        <mxCell id="6W5ZjQAP1qN65vsEq8g1-2" value="" style="rounded=1;whiteSpace=wrap;html=1;fontFamily=Helvetica;fontSize=12;fontColor=#0000FF;strokeColor=#B3B3B3;dashed=1;strokeWidth=3;" parent="6W5ZjQAP1qN65vsEq8g1-1" vertex="1">
          <mxGeometry x="27" y="403" width="1331" height="696" as="geometry" />
        </mxCell>
        <mxCell id="6W5ZjQAP1qN65vsEq8g1-3" value="" style="rounded=1;whiteSpace=wrap;html=1;fontFamily=Helvetica;fontSize=12;fontColor=#0000FF;strokeColor=#B3B3B3;dashed=1;strokeWidth=3;fillColor=#CCCCCC;" parent="6W5ZjQAP1qN65vsEq8g1-1" vertex="1">
          <mxGeometry x="390" y="417" width="823" height="648" as="geometry" />
        </mxCell>
        <mxCell id="6W5ZjQAP1qN65vsEq8g1-4" value="" style="rounded=1;whiteSpace=wrap;html=1;fontFamily=Helvetica;fontSize=12;fontColor=#0000FF;strokeColor=#B3B3B3;dashed=1;strokeWidth=3;" parent="6W5ZjQAP1qN65vsEq8g1-1" vertex="1">
          <mxGeometry x="45" y="22" width="1310" height="348" as="geometry" />
        </mxCell>
        <mxCell id="6W5ZjQAP1qN65vsEq8g1-5" value="Nautilus" style="rounded=1;whiteSpace=wrap;html=1;fontSize=12;fontStyle=0;fontFamily=Tahoma;strokeColor=#DAE8FC;fillColor=#66B2FF;" parent="6W5ZjQAP1qN65vsEq8g1-1" vertex="1">
          <mxGeometry x="102" y="90" width="120" height="60" as="geometry" />
        </mxCell>
        <mxCell id="6W5ZjQAP1qN65vsEq8g1-6" value="Repo 1" style="rounded=1;whiteSpace=wrap;html=1;fontSize=12;fontStyle=0;fontFamily=Tahoma;strokeColor=#DAE8FC;fillColor=#66B2FF;" parent="6W5ZjQAP1qN65vsEq8g1-1" vertex="1">
          <mxGeometry x="100" y="170" width="120" height="60" as="geometry" />
        </mxCell>
        <mxCell id="6W5ZjQAP1qN65vsEq8g1-7" value="Repo 2" style="rounded=1;whiteSpace=wrap;html=1;fontSize=12;fontStyle=0;fontFamily=Tahoma;strokeColor=#DAE8FC;fillColor=#66B2FF;" parent="6W5ZjQAP1qN65vsEq8g1-1" vertex="1">
          <mxGeometry x="100" y="254" width="120" height="60" as="geometry" />
        </mxCell>
        <mxCell id="6W5ZjQAP1qN65vsEq8g1-8" value="Error Table" style="shape=cylinder3;whiteSpace=wrap;html=1;boundedLbl=1;backgroundOutline=1;size=15;fontStyle=0;strokeColor=#FFFFFF;fontColor=#001933;fontFamily=Tahoma;fontSize=12;fillColor=#66B2FF;" parent="6W5ZjQAP1qN65vsEq8g1-1" vertex="1">
          <mxGeometry x="776" y="130" width="110" height="80" as="geometry" />
        </mxCell>
        <mxCell id="6W5ZjQAP1qN65vsEq8g1-104" style="edgeStyle=orthogonalEdgeStyle;rounded=1;orthogonalLoop=1;jettySize=auto;html=1;exitX=1;exitY=0.5;exitDx=0;exitDy=0;entryX=0;entryY=0.5;entryDx=0;entryDy=0;" parent="6W5ZjQAP1qN65vsEq8g1-1" source="6W5ZjQAP1qN65vsEq8g1-10" target="6W5ZjQAP1qN65vsEq8g1-11" edge="1">
          <mxGeometry relative="1" as="geometry" />
        </mxCell>
        <mxCell id="6W5ZjQAP1qN65vsEq8g1-116" style="edgeStyle=orthogonalEdgeStyle;rounded=1;orthogonalLoop=1;jettySize=auto;html=1;exitX=0.5;exitY=0;exitDx=0;exitDy=0;entryX=0.75;entryY=0;entryDx=0;entryDy=0;strokeColor=#0000FF;" parent="6W5ZjQAP1qN65vsEq8g1-1" source="6W5ZjQAP1qN65vsEq8g1-10" target="6W5ZjQAP1qN65vsEq8g1-35" edge="1">
          <mxGeometry relative="1" as="geometry">
            <Array as="points">
              <mxPoint x="349" y="106" />
              <mxPoint x="1313" y="106" />
            </Array>
          </mxGeometry>
        </mxCell>
        <mxCell id="6W5ZjQAP1qN65vsEq8g1-10" value="&lt;font color=&quot;#000000&quot;&gt;Ingest&lt;br style=&quot;font-size: 12px&quot;&gt;Queues&lt;/font&gt;" style="whiteSpace=wrap;html=1;aspect=fixed;fontSize=12;fontStyle=0;fontColor=#0000FF;fontFamily=Tahoma;strokeColor=#DAE8FC;fillColor=#66B2FF;" parent="6W5ZjQAP1qN65vsEq8g1-1" vertex="1">
          <mxGeometry x="310" y="165" width="77" height="77" as="geometry" />
        </mxCell>
        <mxCell id="6W5ZjQAP1qN65vsEq8g1-105" style="edgeStyle=orthogonalEdgeStyle;rounded=1;orthogonalLoop=1;jettySize=auto;html=1;exitX=1;exitY=0.5;exitDx=0;exitDy=0;entryX=0;entryY=0.5;entryDx=0;entryDy=0;entryPerimeter=0;strokeColor=#000000;" parent="6W5ZjQAP1qN65vsEq8g1-1" source="6W5ZjQAP1qN65vsEq8g1-11" target="6W5ZjQAP1qN65vsEq8g1-8" edge="1">
          <mxGeometry relative="1" as="geometry" />
        </mxCell>
        <mxCell id="Qft9pyQR6DPQARMw99R7-14" style="edgeStyle=orthogonalEdgeStyle;rounded=1;orthogonalLoop=1;jettySize=auto;html=1;exitX=0.25;exitY=1;exitDx=0;exitDy=0;entryX=0.5;entryY=0;entryDx=0;entryDy=0;strokeColor=#000000;" parent="6W5ZjQAP1qN65vsEq8g1-1" source="6W5ZjQAP1qN65vsEq8g1-11" target="6W5ZjQAP1qN65vsEq8g1-15" edge="1">
          <mxGeometry relative="1" as="geometry" />
        </mxCell>
        <mxCell id="Qft9pyQR6DPQARMw99R7-15" style="edgeStyle=orthogonalEdgeStyle;rounded=1;orthogonalLoop=1;jettySize=auto;html=1;exitX=0.75;exitY=1;exitDx=0;exitDy=0;entryX=0.5;entryY=0;entryDx=0;entryDy=0;strokeColor=#000000;" parent="6W5ZjQAP1qN65vsEq8g1-1" source="6W5ZjQAP1qN65vsEq8g1-11" target="6W5ZjQAP1qN65vsEq8g1-17" edge="1">
          <mxGeometry relative="1" as="geometry" />
        </mxCell>
        <mxCell id="6W5ZjQAP1qN65vsEq8g1-11" value="NIFI" style="rounded=0;whiteSpace=wrap;html=1;fontStyle=0;fontFamily=Tahoma;strokeColor=#DAE8FC;fontSize=12;fillColor=#66B2FF;" parent="6W5ZjQAP1qN65vsEq8g1-1" vertex="1">
          <mxGeometry x="481" y="173" width="128" height="60" as="geometry" />
        </mxCell>
        <mxCell id="6W5ZjQAP1qN65vsEq8g1-111" style="edgeStyle=orthogonalEdgeStyle;rounded=1;orthogonalLoop=1;jettySize=auto;html=1;exitX=0.75;exitY=0;exitDx=0;exitDy=0;entryX=0.176;entryY=0.989;entryDx=0;entryDy=0;entryPerimeter=0;strokeColor=#0000FF;" parent="6W5ZjQAP1qN65vsEq8g1-1" source="6W5ZjQAP1qN65vsEq8g1-12" target="6W5ZjQAP1qN65vsEq8g1-34" edge="1">
          <mxGeometry relative="1" as="geometry" />
        </mxCell>
        <mxCell id="6W5ZjQAP1qN65vsEq8g1-112" style="edgeStyle=orthogonalEdgeStyle;rounded=1;orthogonalLoop=1;jettySize=auto;html=1;exitX=0.25;exitY=1;exitDx=0;exitDy=0;entryX=0.75;entryY=0;entryDx=0;entryDy=0;strokeColor=#0000FF;" parent="6W5ZjQAP1qN65vsEq8g1-1" source="6W5ZjQAP1qN65vsEq8g1-12" target="6W5ZjQAP1qN65vsEq8g1-44" edge="1">
          <mxGeometry relative="1" as="geometry" />
        </mxCell>
        <mxCell id="6W5ZjQAP1qN65vsEq8g1-113" style="edgeStyle=orthogonalEdgeStyle;rounded=1;orthogonalLoop=1;jettySize=auto;html=1;exitX=1;exitY=0.75;exitDx=0;exitDy=0;entryX=0;entryY=1;entryDx=0;entryDy=-15;entryPerimeter=0;strokeColor=#0000FF;" parent="6W5ZjQAP1qN65vsEq8g1-1" source="6W5ZjQAP1qN65vsEq8g1-12" target="6W5ZjQAP1qN65vsEq8g1-30" edge="1">
          <mxGeometry relative="1" as="geometry">
            <Array as="points">
              <mxPoint x="1001" y="963" />
              <mxPoint x="1001" y="838" />
            </Array>
          </mxGeometry>
        </mxCell>
        <mxCell id="6W5ZjQAP1qN65vsEq8g1-114" style="edgeStyle=orthogonalEdgeStyle;rounded=1;orthogonalLoop=1;jettySize=auto;html=1;exitX=1;exitY=0.25;exitDx=0;exitDy=0;entryX=0;entryY=0;entryDx=0;entryDy=52.5;entryPerimeter=0;strokeColor=#0000FF;" parent="6W5ZjQAP1qN65vsEq8g1-1" source="6W5ZjQAP1qN65vsEq8g1-12" target="6W5ZjQAP1qN65vsEq8g1-31" edge="1">
          <mxGeometry relative="1" as="geometry">
            <Array as="points">
              <mxPoint x="974" y="939" />
              <mxPoint x="974" y="715" />
            </Array>
          </mxGeometry>
        </mxCell>
        <mxCell id="bejv-DehBb-JMuw0PdSP-4" style="edgeStyle=orthogonalEdgeStyle;rounded=1;orthogonalLoop=1;jettySize=auto;html=1;exitX=0.5;exitY=1;exitDx=0;exitDy=0;entryX=0;entryY=0.5;entryDx=0;entryDy=0;strokeColor=#0000FF;" parent="6W5ZjQAP1qN65vsEq8g1-1" source="6W5ZjQAP1qN65vsEq8g1-12" target="6W5ZjQAP1qN65vsEq8g1-14" edge="1">
          <mxGeometry relative="1" as="geometry" />
        </mxCell>
        <mxCell id="6W5ZjQAP1qN65vsEq8g1-12" value="File Service" style="rounded=0;whiteSpace=wrap;html=1;strokeColor=#FFFF00;fillColor=#FFFF00;" parent="6W5ZjQAP1qN65vsEq8g1-1" vertex="1">
          <mxGeometry x="795" y="925" width="108.75" height="47" as="geometry" />
        </mxCell>
        <mxCell id="Qft9pyQR6DPQARMw99R7-3" style="edgeStyle=orthogonalEdgeStyle;rounded=1;orthogonalLoop=1;jettySize=auto;html=1;entryX=0.5;entryY=0;entryDx=0;entryDy=0;strokeColor=#00FF00;exitX=0.25;exitY=1;exitDx=0;exitDy=0;" parent="6W5ZjQAP1qN65vsEq8g1-1" source="6W5ZjQAP1qN65vsEq8g1-13" target="6W5ZjQAP1qN65vsEq8g1-44" edge="1">
          <mxGeometry relative="1" as="geometry" />
        </mxCell>
        <mxCell id="Qft9pyQR6DPQARMw99R7-4" style="edgeStyle=orthogonalEdgeStyle;rounded=1;orthogonalLoop=1;jettySize=auto;html=1;exitX=0;exitY=0.75;exitDx=0;exitDy=0;entryX=0;entryY=0.5;entryDx=0;entryDy=0;strokeColor=#00FF00;" parent="6W5ZjQAP1qN65vsEq8g1-1" source="6W5ZjQAP1qN65vsEq8g1-13" target="6W5ZjQAP1qN65vsEq8g1-43" edge="1">
          <mxGeometry relative="1" as="geometry">
            <Array as="points">
              <mxPoint x="688" y="889" />
              <mxPoint x="688" y="1411" />
            </Array>
          </mxGeometry>
        </mxCell>
        <mxCell id="Qft9pyQR6DPQARMw99R7-5" style="edgeStyle=orthogonalEdgeStyle;rounded=1;orthogonalLoop=1;jettySize=auto;html=1;exitX=0;exitY=0.25;exitDx=0;exitDy=0;entryX=1;entryY=0.5;entryDx=0;entryDy=0;entryPerimeter=0;strokeColor=#00FF00;" parent="6W5ZjQAP1qN65vsEq8g1-1" source="6W5ZjQAP1qN65vsEq8g1-13" target="6W5ZjQAP1qN65vsEq8g1-28" edge="1">
          <mxGeometry relative="1" as="geometry" />
        </mxCell>
        <mxCell id="Qft9pyQR6DPQARMw99R7-6" style="edgeStyle=orthogonalEdgeStyle;rounded=1;orthogonalLoop=1;jettySize=auto;html=1;exitX=0.25;exitY=0;exitDx=0;exitDy=0;entryX=0.5;entryY=1;entryDx=0;entryDy=0;strokeColor=#00FF00;" parent="6W5ZjQAP1qN65vsEq8g1-1" source="6W5ZjQAP1qN65vsEq8g1-13" target="6W5ZjQAP1qN65vsEq8g1-16" edge="1">
          <mxGeometry relative="1" as="geometry">
            <Array as="points">
              <mxPoint x="767" y="550" />
              <mxPoint x="535" y="550" />
            </Array>
          </mxGeometry>
        </mxCell>
        <mxCell id="Qft9pyQR6DPQARMw99R7-7" style="edgeStyle=orthogonalEdgeStyle;rounded=1;orthogonalLoop=1;jettySize=auto;html=1;exitX=0.5;exitY=0;exitDx=0;exitDy=0;entryX=0.5;entryY=1;entryDx=0;entryDy=0;strokeColor=#00FF00;" parent="6W5ZjQAP1qN65vsEq8g1-1" source="6W5ZjQAP1qN65vsEq8g1-13" target="6W5ZjQAP1qN65vsEq8g1-17" edge="1">
          <mxGeometry relative="1" as="geometry">
            <Array as="points">
              <mxPoint x="797" y="528" />
              <mxPoint x="627" y="528" />
            </Array>
          </mxGeometry>
        </mxCell>
        <mxCell id="Qft9pyQR6DPQARMw99R7-8" style="edgeStyle=orthogonalEdgeStyle;rounded=1;orthogonalLoop=1;jettySize=auto;html=1;exitX=0.75;exitY=0;exitDx=0;exitDy=0;entryX=0;entryY=0.25;entryDx=0;entryDy=0;strokeColor=#00FF00;" parent="6W5ZjQAP1qN65vsEq8g1-1" source="6W5ZjQAP1qN65vsEq8g1-13" target="6W5ZjQAP1qN65vsEq8g1-34" edge="1">
          <mxGeometry relative="1" as="geometry" />
        </mxCell>
        <mxCell id="bejv-DehBb-JMuw0PdSP-2" style="edgeStyle=orthogonalEdgeStyle;rounded=1;orthogonalLoop=1;jettySize=auto;html=1;exitX=0.377;exitY=0.998;exitDx=0;exitDy=0;entryX=0;entryY=0.75;entryDx=0;entryDy=0;strokeColor=#00FF00;exitPerimeter=0;" parent="6W5ZjQAP1qN65vsEq8g1-1" source="6W5ZjQAP1qN65vsEq8g1-13" target="6W5ZjQAP1qN65vsEq8g1-14" edge="1">
          <mxGeometry relative="1" as="geometry" />
        </mxCell>
        <mxCell id="6W5ZjQAP1qN65vsEq8g1-13" value="Eva API Service" style="rounded=0;whiteSpace=wrap;html=1;strokeColor=#FFFF00;fillColor=#FFFF00;" parent="6W5ZjQAP1qN65vsEq8g1-1" vertex="1">
          <mxGeometry x="736" y="846" width="122" height="57" as="geometry" />
        </mxCell>
        <mxCell id="6W5ZjQAP1qN65vsEq8g1-108" style="edgeStyle=orthogonalEdgeStyle;rounded=1;orthogonalLoop=1;jettySize=auto;html=1;exitX=0.5;exitY=1;exitDx=0;exitDy=0;entryX=0.5;entryY=0;entryDx=0;entryDy=0;strokeColor=#FF8000;" parent="6W5ZjQAP1qN65vsEq8g1-1" source="6W5ZjQAP1qN65vsEq8g1-14" target="6W5ZjQAP1qN65vsEq8g1-42" edge="1">
          <mxGeometry relative="1" as="geometry" />
        </mxCell>
        <mxCell id="6W5ZjQAP1qN65vsEq8g1-109" style="edgeStyle=orthogonalEdgeStyle;rounded=1;orthogonalLoop=1;jettySize=auto;html=1;exitX=1;exitY=0.5;exitDx=0;exitDy=0;entryX=0;entryY=1;entryDx=0;entryDy=-15;entryPerimeter=0;strokeColor=#FF8000;" parent="6W5ZjQAP1qN65vsEq8g1-1" source="6W5ZjQAP1qN65vsEq8g1-14" target="6W5ZjQAP1qN65vsEq8g1-29" edge="1">
          <mxGeometry relative="1" as="geometry" />
        </mxCell>
        <mxCell id="bejv-DehBb-JMuw0PdSP-3" style="edgeStyle=orthogonalEdgeStyle;rounded=1;orthogonalLoop=1;jettySize=auto;html=1;exitX=0.75;exitY=0;exitDx=0;exitDy=0;strokeColor=#FF8000;" parent="6W5ZjQAP1qN65vsEq8g1-1" source="6W5ZjQAP1qN65vsEq8g1-14" target="6W5ZjQAP1qN65vsEq8g1-34" edge="1">
          <mxGeometry relative="1" as="geometry" />
        </mxCell>
        <mxCell id="6W5ZjQAP1qN65vsEq8g1-14" value="Catalog Service" style="rounded=0;whiteSpace=wrap;html=1;strokeColor=#FFFF00;fillColor=#FFFF00;" parent="6W5ZjQAP1qN65vsEq8g1-1" vertex="1">
          <mxGeometry x="858" y="997" width="102" height="47" as="geometry" />
        </mxCell>
        <mxCell id="6W5ZjQAP1qN65vsEq8g1-15" value="Rules Engine" style="rounded=0;whiteSpace=wrap;html=1;fontSize=12;fontStyle=0;fontFamily=Tahoma;strokeColor=#DAE8FC;fillColor=#66B2FF;" parent="6W5ZjQAP1qN65vsEq8g1-1" vertex="1">
          <mxGeometry x="415" y="280" width="70" height="54" as="geometry" />
        </mxCell>
        <mxCell id="6W5ZjQAP1qN65vsEq8g1-16" value="RCS" style="rounded=0;whiteSpace=wrap;html=1;fontSize=12;fontStyle=0;fontFamily=Tahoma;strokeColor=#DAE8FC;fillColor=#66B2FF;" parent="6W5ZjQAP1qN65vsEq8g1-1" vertex="1">
          <mxGeometry x="500" y="281" width="70" height="53" as="geometry" />
        </mxCell>
        <mxCell id="6W5ZjQAP1qN65vsEq8g1-106" style="edgeStyle=orthogonalEdgeStyle;rounded=1;orthogonalLoop=1;jettySize=auto;html=1;exitX=1;exitY=0.5;exitDx=0;exitDy=0;entryX=0;entryY=0;entryDx=0;entryDy=52.5;entryPerimeter=0;strokeColor=#000000;" parent="6W5ZjQAP1qN65vsEq8g1-1" source="6W5ZjQAP1qN65vsEq8g1-17" target="6W5ZjQAP1qN65vsEq8g1-18" edge="1">
          <mxGeometry relative="1" as="geometry" />
        </mxCell>
        <mxCell id="6W5ZjQAP1qN65vsEq8g1-107" style="edgeStyle=orthogonalEdgeStyle;rounded=1;orthogonalLoop=1;jettySize=auto;html=1;exitX=0.75;exitY=1;exitDx=0;exitDy=0;entryX=0.25;entryY=1;entryDx=0;entryDy=0;strokeColor=#000000;" parent="6W5ZjQAP1qN65vsEq8g1-1" source="6W5ZjQAP1qN65vsEq8g1-17" target="6W5ZjQAP1qN65vsEq8g1-19" edge="1">
          <mxGeometry relative="1" as="geometry" />
        </mxCell>
        <mxCell id="6W5ZjQAP1qN65vsEq8g1-17" value="RMM" style="rounded=0;whiteSpace=wrap;html=1;fontSize=12;fontStyle=0;fontFamily=Tahoma;strokeColor=#DAE8FC;fillColor=#66B2FF;" parent="6W5ZjQAP1qN65vsEq8g1-1" vertex="1">
          <mxGeometry x="586" y="280" width="82" height="54" as="geometry" />
        </mxCell>
        <mxCell id="6W5ZjQAP1qN65vsEq8g1-18" value="RMM Table" style="shape=cylinder3;whiteSpace=wrap;html=1;boundedLbl=1;backgroundOutline=1;size=15;fontStyle=0;fontColor=#001933;fontFamily=Tahoma;fontSize=12;strokeColor=#FFFFFF;fillColor=#66B2FF;" parent="6W5ZjQAP1qN65vsEq8g1-1" vertex="1">
          <mxGeometry x="776" y="231" width="110" height="80" as="geometry" />
        </mxCell>
        <mxCell id="Qft9pyQR6DPQARMw99R7-0" style="edgeStyle=orthogonalEdgeStyle;rounded=1;orthogonalLoop=1;jettySize=auto;html=1;exitX=1;exitY=0.5;exitDx=0;exitDy=0;entryX=0.25;entryY=0;entryDx=0;entryDy=0;strokeColor=#0000FF;" parent="6W5ZjQAP1qN65vsEq8g1-1" source="6W5ZjQAP1qN65vsEq8g1-19" target="6W5ZjQAP1qN65vsEq8g1-35" edge="1">
          <mxGeometry relative="1" as="geometry" />
        </mxCell>
        <mxCell id="6W5ZjQAP1qN65vsEq8g1-19" value="Disposition &amp;amp; Holds&lt;br&gt;Notification Service" style="rounded=0;whiteSpace=wrap;html=1;fontStyle=0;fontFamily=Tahoma;fillColor=#FFFF00;strokeColor=#FFFF00;fontColor=#001933;" parent="6W5ZjQAP1qN65vsEq8g1-1" vertex="1">
          <mxGeometry x="1033.5" y="233" width="132" height="70" as="geometry" />
        </mxCell>
        <mxCell id="6W5ZjQAP1qN65vsEq8g1-20" value="Scanning Center" style="rounded=0;whiteSpace=wrap;html=1;fontFamily=Helvetica;fontSize=12;shadow=1;fontStyle=0;strokeColor=#DAE8FC;fontColor=#001933;fillColor=#66B2FF;" parent="6W5ZjQAP1qN65vsEq8g1-1" vertex="1">
          <mxGeometry x="70" y="542" width="120" height="60" as="geometry" />
        </mxCell>
        <mxCell id="6W5ZjQAP1qN65vsEq8g1-21" value="Domain 1" style="text;html=1;resizable=0;autosize=1;align=center;verticalAlign=middle;points=[];fillColor=none;strokeColor=none;rounded=0;fontFamily=Tahoma;fontSize=20;fontStyle=1;fontColor=#B3B3B3;" parent="6W5ZjQAP1qN65vsEq8g1-1" vertex="1">
          <mxGeometry x="1157" y="314" width="106" height="28" as="geometry" />
        </mxCell>
        <mxCell id="6W5ZjQAP1qN65vsEq8g1-22" value="System Z" style="rounded=0;whiteSpace=wrap;html=1;fontFamily=Helvetica;fontSize=12;shadow=1;fontStyle=0;strokeColor=#DAE8FC;fontColor=#001933;fillColor=#66B2FF;" parent="6W5ZjQAP1qN65vsEq8g1-1" vertex="1">
          <mxGeometry x="70" y="631" width="120" height="60" as="geometry" />
        </mxCell>
        <mxCell id="6W5ZjQAP1qN65vsEq8g1-94" style="edgeStyle=orthogonalEdgeStyle;rounded=1;orthogonalLoop=1;jettySize=auto;html=1;exitX=1;exitY=0.5;exitDx=0;exitDy=0;entryX=0;entryY=0.5;entryDx=0;entryDy=0;" parent="6W5ZjQAP1qN65vsEq8g1-1" source="6W5ZjQAP1qN65vsEq8g1-23" target="6W5ZjQAP1qN65vsEq8g1-26" edge="1">
          <mxGeometry relative="1" as="geometry" />
        </mxCell>
        <mxCell id="6W5ZjQAP1qN65vsEq8g1-23" value="External S3 Buckets" style="rounded=0;whiteSpace=wrap;html=1;fontFamily=Helvetica;fontSize=12;shadow=1;fontStyle=0;strokeColor=#DAE8FC;fontColor=#001933;fillColor=#66B2FF;" parent="6W5ZjQAP1qN65vsEq8g1-1" vertex="1">
          <mxGeometry x="70" y="773" width="120" height="60" as="geometry" />
        </mxCell>
        <mxCell id="Qft9pyQR6DPQARMw99R7-1" style="edgeStyle=orthogonalEdgeStyle;rounded=1;orthogonalLoop=1;jettySize=auto;html=1;exitX=1;exitY=0.5;exitDx=0;exitDy=0;entryX=0;entryY=0.5;entryDx=0;entryDy=0;" parent="6W5ZjQAP1qN65vsEq8g1-1" source="6W5ZjQAP1qN65vsEq8g1-24" target="6W5ZjQAP1qN65vsEq8g1-25" edge="1">
          <mxGeometry relative="1" as="geometry" />
        </mxCell>
        <mxCell id="6W5ZjQAP1qN65vsEq8g1-24" value="Data Processing Queues" style="rounded=0;whiteSpace=wrap;html=1;fontStyle=0;strokeColor=#DAE8FC;fontFamily=Helvetica;fontColor=#001933;shadow=1;fillColor=#66B2FF;" parent="6W5ZjQAP1qN65vsEq8g1-1" vertex="1">
          <mxGeometry x="254" y="587" width="120" height="62" as="geometry" />
        </mxCell>
        <mxCell id="6W5ZjQAP1qN65vsEq8g1-97" style="edgeStyle=orthogonalEdgeStyle;rounded=1;orthogonalLoop=1;jettySize=auto;html=1;exitX=0.25;exitY=0;exitDx=0;exitDy=0;entryX=0.25;entryY=1;entryDx=0;entryDy=0;strokeColor=#FF0000;" parent="6W5ZjQAP1qN65vsEq8g1-1" source="6W5ZjQAP1qN65vsEq8g1-25" target="6W5ZjQAP1qN65vsEq8g1-10" edge="1">
          <mxGeometry relative="1" as="geometry" />
        </mxCell>
        <mxCell id="6W5ZjQAP1qN65vsEq8g1-98" style="edgeStyle=orthogonalEdgeStyle;rounded=1;orthogonalLoop=1;jettySize=auto;html=1;exitX=1;exitY=0.25;exitDx=0;exitDy=0;entryX=0;entryY=0.75;entryDx=0;entryDy=0;strokeColor=#FF0000;" parent="6W5ZjQAP1qN65vsEq8g1-1" source="6W5ZjQAP1qN65vsEq8g1-25" target="6W5ZjQAP1qN65vsEq8g1-34" edge="1">
          <mxGeometry relative="1" as="geometry" />
        </mxCell>
        <mxCell id="6W5ZjQAP1qN65vsEq8g1-99" style="edgeStyle=orthogonalEdgeStyle;rounded=1;orthogonalLoop=1;jettySize=auto;html=1;exitX=1;exitY=0.5;exitDx=0;exitDy=0;entryX=0;entryY=0.5;entryDx=0;entryDy=0;entryPerimeter=0;strokeColor=#FF0000;" parent="6W5ZjQAP1qN65vsEq8g1-1" source="6W5ZjQAP1qN65vsEq8g1-25" target="6W5ZjQAP1qN65vsEq8g1-32" edge="1">
          <mxGeometry relative="1" as="geometry" />
        </mxCell>
        <mxCell id="6W5ZjQAP1qN65vsEq8g1-101" style="edgeStyle=orthogonalEdgeStyle;rounded=1;orthogonalLoop=1;jettySize=auto;html=1;exitX=1;exitY=0.75;exitDx=0;exitDy=0;entryX=0;entryY=0;entryDx=0;entryDy=27.5;entryPerimeter=0;strokeColor=#FF0000;" parent="6W5ZjQAP1qN65vsEq8g1-1" source="6W5ZjQAP1qN65vsEq8g1-25" target="6W5ZjQAP1qN65vsEq8g1-31" edge="1">
          <mxGeometry relative="1" as="geometry" />
        </mxCell>
        <mxCell id="6W5ZjQAP1qN65vsEq8g1-102" style="edgeStyle=orthogonalEdgeStyle;rounded=1;orthogonalLoop=1;jettySize=auto;html=1;exitX=1;exitY=1;exitDx=0;exitDy=0;entryX=0;entryY=0.5;entryDx=0;entryDy=0;entryPerimeter=0;strokeColor=#FF0000;" parent="6W5ZjQAP1qN65vsEq8g1-1" source="6W5ZjQAP1qN65vsEq8g1-25" target="6W5ZjQAP1qN65vsEq8g1-30" edge="1">
          <mxGeometry relative="1" as="geometry">
            <Array as="points">
              <mxPoint x="606" y="749" />
              <mxPoint x="1024" y="749" />
              <mxPoint x="1024" y="813" />
            </Array>
          </mxGeometry>
        </mxCell>
        <mxCell id="6W5ZjQAP1qN65vsEq8g1-103" style="edgeStyle=orthogonalEdgeStyle;rounded=1;orthogonalLoop=1;jettySize=auto;html=1;exitX=0.75;exitY=1;exitDx=0;exitDy=0;strokeColor=#FF0000;" parent="6W5ZjQAP1qN65vsEq8g1-1" source="6W5ZjQAP1qN65vsEq8g1-25" edge="1">
          <mxGeometry relative="1" as="geometry">
            <mxPoint x="593" y="1267" as="targetPoint" />
            <Array as="points">
              <mxPoint x="593" y="649" />
            </Array>
          </mxGeometry>
        </mxCell>
        <mxCell id="6W5ZjQAP1qN65vsEq8g1-25" value="NIFI" style="rounded=0;whiteSpace=wrap;html=1;fillColor=#FFFF00;strokeColor=#FFFF00;fontColor=#000000;fontFamily=Helvetica;" parent="6W5ZjQAP1qN65vsEq8g1-1" vertex="1">
          <mxGeometry x="478" y="586" width="128" height="63" as="geometry" />
        </mxCell>
        <mxCell id="6W5ZjQAP1qN65vsEq8g1-95" style="edgeStyle=orthogonalEdgeStyle;rounded=0;orthogonalLoop=1;jettySize=auto;html=1;exitX=0.5;exitY=0;exitDx=0;exitDy=0;entryX=0.5;entryY=1;entryDx=0;entryDy=0;" parent="6W5ZjQAP1qN65vsEq8g1-1" source="6W5ZjQAP1qN65vsEq8g1-26" target="6W5ZjQAP1qN65vsEq8g1-27" edge="1">
          <mxGeometry relative="1" as="geometry" />
        </mxCell>
        <mxCell id="6W5ZjQAP1qN65vsEq8g1-26" value="S3 Landing Zone" style="rounded=0;whiteSpace=wrap;html=1;strokeColor=#FFFF00;fontFamily=Helvetica;fontSize=12;fontColor=#000000;fillColor=#FFFF00;" parent="6W5ZjQAP1qN65vsEq8g1-1" vertex="1">
          <mxGeometry x="457" y="777" width="115" height="52" as="geometry" />
        </mxCell>
        <mxCell id="6W5ZjQAP1qN65vsEq8g1-96" style="edgeStyle=orthogonalEdgeStyle;rounded=0;orthogonalLoop=1;jettySize=auto;html=1;exitX=0.5;exitY=0;exitDx=0;exitDy=0;entryX=0.25;entryY=1;entryDx=0;entryDy=0;" parent="6W5ZjQAP1qN65vsEq8g1-1" source="6W5ZjQAP1qN65vsEq8g1-27" target="6W5ZjQAP1qN65vsEq8g1-25" edge="1">
          <mxGeometry relative="1" as="geometry" />
        </mxCell>
        <mxCell id="6W5ZjQAP1qN65vsEq8g1-27" value="Ingest&lt;br style=&quot;font-size: 13px;&quot;&gt;Queue" style="whiteSpace=wrap;html=1;aspect=fixed;strokeColor=#FFFF00;fontFamily=Helvetica;fontSize=12;fontColor=#000000;rounded=0;fillColor=#FFFF00;" parent="6W5ZjQAP1qN65vsEq8g1-1" vertex="1">
          <mxGeometry x="478" y="682" width="60" height="60" as="geometry" />
        </mxCell>
        <mxCell id="dc6nMiSu5jc_5wol0Yhv-0" style="edgeStyle=orthogonalEdgeStyle;rounded=1;orthogonalLoop=1;jettySize=auto;html=1;exitX=0;exitY=0.5;exitDx=0;exitDy=0;exitPerimeter=0;entryX=1;entryY=0.5;entryDx=0;entryDy=0;" parent="6W5ZjQAP1qN65vsEq8g1-1" source="6W5ZjQAP1qN65vsEq8g1-28" target="6W5ZjQAP1qN65vsEq8g1-26" edge="1">
          <mxGeometry relative="1" as="geometry" />
        </mxCell>
        <mxCell id="6W5ZjQAP1qN65vsEq8g1-28" value="&lt;font style=&quot;font-size: 12px&quot;&gt;Workspace&lt;/font&gt;" style="shape=cylinder3;whiteSpace=wrap;html=1;boundedLbl=1;backgroundOutline=1;size=15;fontFamily=Tahoma;fontSize=12;fontColor=#001933;fontStyle=0;strokeColor=#FFFFFF;fillColor=#66B2FF;" parent="6W5ZjQAP1qN65vsEq8g1-1" vertex="1">
          <mxGeometry x="638" y="760" width="59" height="85" as="geometry" />
        </mxCell>
        <mxCell id="6W5ZjQAP1qN65vsEq8g1-29" value="Catalog Storage" style="shape=cylinder3;whiteSpace=wrap;html=1;boundedLbl=1;backgroundOutline=1;size=15;strokeColor=#FFFFFF;fontFamily=Helvetica;fontSize=12;fontColor=#000000;fillColor=#FFFF00;rounded=0;" parent="6W5ZjQAP1qN65vsEq8g1-1" vertex="1">
          <mxGeometry x="1065" y="874" width="72" height="80" as="geometry" />
        </mxCell>
        <mxCell id="6W5ZjQAP1qN65vsEq8g1-30" value="Object Storage" style="shape=cylinder3;whiteSpace=wrap;html=1;boundedLbl=1;backgroundOutline=1;size=15;strokeColor=#FFFFFF;fontFamily=Helvetica;fontSize=12;fontColor=#000000;fillColor=#FFFF00;rounded=0;" parent="6W5ZjQAP1qN65vsEq8g1-1" vertex="1">
          <mxGeometry x="1063" y="773" width="73" height="80" as="geometry" />
        </mxCell>
        <mxCell id="6W5ZjQAP1qN65vsEq8g1-31" value="Metadata&lt;br style=&quot;font-size: 12px;&quot;&gt;Storage" style="shape=cylinder3;whiteSpace=wrap;html=1;boundedLbl=1;backgroundOutline=1;size=15;fontFamily=Tahoma;fontSize=12;fontColor=#001933;fontStyle=0;strokeColor=#FFFFFF;fillColor=#66B2FF;" parent="6W5ZjQAP1qN65vsEq8g1-1" vertex="1">
          <mxGeometry x="1060" y="662" width="76" height="80" as="geometry" />
        </mxCell>
        <mxCell id="6W5ZjQAP1qN65vsEq8g1-32" value="Error Table" style="shape=cylinder3;whiteSpace=wrap;html=1;boundedLbl=1;backgroundOutline=1;size=15;fontFamily=Tahoma;fontSize=12;fontStyle=0;strokeColor=#FFFFFF;fontColor=#001933;fillColor=#66B2FF;" parent="6W5ZjQAP1qN65vsEq8g1-1" vertex="1">
          <mxGeometry x="1058" y="554" width="79" height="80" as="geometry" />
        </mxCell>
        <mxCell id="6W5ZjQAP1qN65vsEq8g1-33" value="P&amp;amp;L Storage" style="shape=cylinder3;whiteSpace=wrap;html=1;boundedLbl=1;backgroundOutline=1;size=15;fontFamily=Helvetica;fontSize=12;fontColor=#000000;fillColor=#FFFF00;rounded=0;strokeColor=#FFFFFF;" parent="6W5ZjQAP1qN65vsEq8g1-1" vertex="1">
          <mxGeometry x="1058" y="452" width="81" height="80" as="geometry" />
        </mxCell>
        <mxCell id="Qft9pyQR6DPQARMw99R7-13" style="edgeStyle=orthogonalEdgeStyle;rounded=1;orthogonalLoop=1;jettySize=auto;html=1;exitX=1;exitY=0.5;exitDx=0;exitDy=0;entryX=0;entryY=0.5;entryDx=0;entryDy=0;entryPerimeter=0;" parent="6W5ZjQAP1qN65vsEq8g1-1" source="6W5ZjQAP1qN65vsEq8g1-34" target="6W5ZjQAP1qN65vsEq8g1-33" edge="1">
          <mxGeometry relative="1" as="geometry" />
        </mxCell>
        <mxCell id="6W5ZjQAP1qN65vsEq8g1-34" value="Pedigree &amp;amp; Lineage Service" style="rounded=0;whiteSpace=wrap;html=1;fillColor=#FFFF00;strokeColor=#FFFF00;" parent="6W5ZjQAP1qN65vsEq8g1-1" vertex="1">
          <mxGeometry x="891" y="468.5" width="102" height="47" as="geometry" />
        </mxCell>
        <mxCell id="6W5ZjQAP1qN65vsEq8g1-35" value="SQS Queues" style="whiteSpace=wrap;html=1;aspect=fixed;strokeColor=#FFFF00;fontFamily=Helvetica;fontSize=12;fontColor=#000000;rounded=1;fillColor=#FFFF00;" parent="6W5ZjQAP1qN65vsEq8g1-1" vertex="1">
          <mxGeometry x="1253" y="672.5" width="80" height="80" as="geometry" />
        </mxCell>
        <mxCell id="6W5ZjQAP1qN65vsEq8g1-93" style="edgeStyle=orthogonalEdgeStyle;rounded=1;orthogonalLoop=1;jettySize=auto;html=1;exitX=0.5;exitY=1;exitDx=0;exitDy=0;entryX=0.75;entryY=0;entryDx=0;entryDy=0;" parent="6W5ZjQAP1qN65vsEq8g1-1" source="6W5ZjQAP1qN65vsEq8g1-36" target="6W5ZjQAP1qN65vsEq8g1-46" edge="1">
          <mxGeometry relative="1" as="geometry" />
        </mxCell>
        <mxCell id="tXZxI4vkqruDn_3kicG0-1" style="edgeStyle=orthogonalEdgeStyle;rounded=1;orthogonalLoop=1;jettySize=auto;html=1;exitX=1;exitY=0.5;exitDx=0;exitDy=0;entryX=0;entryY=0.5;entryDx=0;entryDy=0;" parent="6W5ZjQAP1qN65vsEq8g1-1" source="6W5ZjQAP1qN65vsEq8g1-36" target="6W5ZjQAP1qN65vsEq8g1-13" edge="1">
          <mxGeometry relative="1" as="geometry" />
        </mxCell>
        <mxCell id="6W5ZjQAP1qN65vsEq8g1-36" value="UI" style="whiteSpace=wrap;html=1;aspect=fixed;shadow=1;fontFamily=Helvetica;fontSize=14;rounded=0;fontStyle=1;strokeColor=#DAE8FC;fontColor=#001933;fillColor=#66B2FF;" parent="6W5ZjQAP1qN65vsEq8g1-1" vertex="1">
          <mxGeometry x="475" y="954" width="93" height="93" as="geometry" />
        </mxCell>
        <mxCell id="6W5ZjQAP1qN65vsEq8g1-37" value="Domain 2" style="text;html=1;resizable=0;autosize=1;align=center;verticalAlign=middle;points=[];fillColor=none;strokeColor=none;rounded=0;fontFamily=Tahoma;fontSize=20;fontStyle=1;fontColor=#B3B3B3;" parent="6W5ZjQAP1qN65vsEq8g1-1" vertex="1">
          <mxGeometry x="1198" y="1050" width="106" height="28" as="geometry" />
        </mxCell>
        <mxCell id="6W5ZjQAP1qN65vsEq8g1-38" value="Eva 2.0" style="text;html=1;resizable=0;autosize=1;align=center;verticalAlign=middle;points=[];fillColor=none;strokeColor=none;rounded=0;fontFamily=Helvetica;fontSize=22;fontStyle=1;fontColor=#666666;" parent="6W5ZjQAP1qN65vsEq8g1-1" vertex="1">
          <mxGeometry x="414" y="466" width="86" height="30" as="geometry" />
        </mxCell>
        <mxCell id="6W5ZjQAP1qN65vsEq8g1-41" value="GUIDE*" style="rounded=0;whiteSpace=wrap;html=1;shadow=1;strokeWidth=3;fillColor=#ffffff;fontFamily=Helvetica;fontSize=22;fontColor=#000000;" parent="6W5ZjQAP1qN65vsEq8g1-1" vertex="1">
          <mxGeometry x="35" y="1445" width="150" height="80" as="geometry" />
        </mxCell>
        <mxCell id="6W5ZjQAP1qN65vsEq8g1-42" value="Enterprise Catalog" style="rounded=0;whiteSpace=wrap;html=1;shadow=1;strokeWidth=3;fontFamily=Helvetica;fontSize=22;" parent="6W5ZjQAP1qN65vsEq8g1-1" vertex="1">
          <mxGeometry x="873" y="1140" width="120" height="80" as="geometry" />
        </mxCell>
        <mxCell id="Qft9pyQR6DPQARMw99R7-9" style="edgeStyle=orthogonalEdgeStyle;rounded=1;orthogonalLoop=1;jettySize=auto;html=1;exitX=1;exitY=0.75;exitDx=0;exitDy=0;entryX=0.75;entryY=1;entryDx=0;entryDy=0;strokeColor=#FF3399;" parent="6W5ZjQAP1qN65vsEq8g1-1" source="6W5ZjQAP1qN65vsEq8g1-43" target="6W5ZjQAP1qN65vsEq8g1-35" edge="1">
          <mxGeometry relative="1" as="geometry" />
        </mxCell>
        <mxCell id="Qft9pyQR6DPQARMw99R7-10" style="edgeStyle=orthogonalEdgeStyle;rounded=1;orthogonalLoop=1;jettySize=auto;html=1;exitX=1;exitY=0.5;exitDx=0;exitDy=0;entryX=1;entryY=0.5;entryDx=0;entryDy=0;entryPerimeter=0;strokeColor=#FF3399;" parent="6W5ZjQAP1qN65vsEq8g1-1" source="6W5ZjQAP1qN65vsEq8g1-43" target="6W5ZjQAP1qN65vsEq8g1-31" edge="1">
          <mxGeometry relative="1" as="geometry">
            <Array as="points">
              <mxPoint x="1242" y="1411" />
              <mxPoint x="1242" y="702" />
            </Array>
          </mxGeometry>
        </mxCell>
        <mxCell id="Qft9pyQR6DPQARMw99R7-11" style="edgeStyle=orthogonalEdgeStyle;rounded=1;orthogonalLoop=1;jettySize=auto;html=1;exitX=1;exitY=0.25;exitDx=0;exitDy=0;entryX=1;entryY=0.5;entryDx=0;entryDy=0;entryPerimeter=0;strokeColor=#FF3399;" parent="6W5ZjQAP1qN65vsEq8g1-1" source="6W5ZjQAP1qN65vsEq8g1-43" target="6W5ZjQAP1qN65vsEq8g1-30" edge="1">
          <mxGeometry relative="1" as="geometry">
            <Array as="points">
              <mxPoint x="1182" y="1392" />
              <mxPoint x="1182" y="813" />
            </Array>
          </mxGeometry>
        </mxCell>
        <mxCell id="6W5ZjQAP1qN65vsEq8g1-43" value="Index Service" style="rounded=0;whiteSpace=wrap;html=1;shadow=1;strokeWidth=3;fontFamily=Helvetica;fontSize=22;" parent="6W5ZjQAP1qN65vsEq8g1-1" vertex="1">
          <mxGeometry x="724" y="1372" width="155" height="78" as="geometry" />
        </mxCell>
        <mxCell id="6W5ZjQAP1qN65vsEq8g1-44" value="Enterprise Authorization" style="rounded=0;whiteSpace=wrap;html=1;shadow=1;strokeWidth=3;fontFamily=Helvetica;fontSize=22;" parent="6W5ZjQAP1qN65vsEq8g1-1" vertex="1">
          <mxGeometry x="724" y="1267" width="150" height="80" as="geometry" />
        </mxCell>
        <mxCell id="6W5ZjQAP1qN65vsEq8g1-45" value="SMART" style="rounded=0;whiteSpace=wrap;html=1;shadow=1;strokeWidth=3;fontFamily=Helvetica;fontSize=22;" parent="6W5ZjQAP1qN65vsEq8g1-1" vertex="1">
          <mxGeometry x="543" y="1269.5" width="120" height="75" as="geometry" />
        </mxCell>
        <mxCell id="6W5ZjQAP1qN65vsEq8g1-46" value="CMT" style="rounded=0;whiteSpace=wrap;html=1;shadow=1;strokeWidth=3;fontFamily=Helvetica;fontSize=22;" parent="6W5ZjQAP1qN65vsEq8g1-1" vertex="1">
          <mxGeometry x="432" y="1170" width="120" height="82" as="geometry" />
        </mxCell>
        <mxCell id="6W5ZjQAP1qN65vsEq8g1-47" value="*Used by multiple services" style="text;html=1;resizable=0;autosize=1;align=center;verticalAlign=middle;points=[];fillColor=none;strokeColor=none;rounded=0;shadow=1;fontFamily=Helvetica;fontSize=22;fontStyle=2;fontColor=#999999;" parent="6W5ZjQAP1qN65vsEq8g1-1" vertex="1">
          <mxGeometry x="12" y="1655" width="268" height="30" as="geometry" />
        </mxCell>
        <mxCell id="6W5ZjQAP1qN65vsEq8g1-87" value="Eva 2.0 High Level Architecture" style="text;html=1;strokeColor=none;fillColor=none;align=center;verticalAlign=middle;whiteSpace=wrap;rounded=0;fontSize=40;fontStyle=1" parent="6W5ZjQAP1qN65vsEq8g1-1" vertex="1">
          <mxGeometry x="-32" y="-186" width="645" height="20" as="geometry" />
        </mxCell>
        <mxCell id="6W5ZjQAP1qN65vsEq8g1-91" style="edgeStyle=orthogonalEdgeStyle;rounded=1;orthogonalLoop=1;jettySize=auto;html=1;exitX=0.25;exitY=0;exitDx=0;exitDy=0;entryX=0;entryY=0.25;entryDx=0;entryDy=0;" parent="6W5ZjQAP1qN65vsEq8g1-1" source="6W5ZjQAP1qN65vsEq8g1-88" target="6W5ZjQAP1qN65vsEq8g1-36" edge="1">
          <mxGeometry relative="1" as="geometry" />
        </mxCell>
        <mxCell id="6W5ZjQAP1qN65vsEq8g1-92" style="edgeStyle=orthogonalEdgeStyle;rounded=1;orthogonalLoop=1;jettySize=auto;html=1;exitX=0.75;exitY=0;exitDx=0;exitDy=0;entryX=0.25;entryY=0;entryDx=0;entryDy=0;" parent="6W5ZjQAP1qN65vsEq8g1-1" source="6W5ZjQAP1qN65vsEq8g1-88" target="6W5ZjQAP1qN65vsEq8g1-44" edge="1">
          <mxGeometry relative="1" as="geometry">
            <Array as="points">
              <mxPoint x="184" y="1131" />
              <mxPoint x="762" y="1131" />
            </Array>
          </mxGeometry>
        </mxCell>
        <mxCell id="6W5ZjQAP1qN65vsEq8g1-88" value="BYNAC" style="rounded=0;whiteSpace=wrap;html=1;fillColor=#FFFF00;fontSize=16;fontColor=#000000;align=center;strokeColor=#FFFFFF;gradientColor=#3399FF;" parent="6W5ZjQAP1qN65vsEq8g1-1" vertex="1">
          <mxGeometry x="94" y="1194" width="120" height="60" as="geometry" />
        </mxCell>
        <mxCell id="iHU-u8DEtRdlDgTZo3jV-1" style="edgeStyle=orthogonalEdgeStyle;rounded=1;orthogonalLoop=1;jettySize=auto;html=1;exitX=0.1;exitY=0.5;exitDx=0;exitDy=0;exitPerimeter=0;entryX=0;entryY=0.5;entryDx=0;entryDy=0;strokeColor=#000000;" parent="6W5ZjQAP1qN65vsEq8g1-1" source="iHU-u8DEtRdlDgTZo3jV-0" target="6W5ZjQAP1qN65vsEq8g1-24" edge="1">
          <mxGeometry relative="1" as="geometry" />
        </mxCell>
        <mxCell id="iHU-u8DEtRdlDgTZo3jV-0" value="" style="shape=curlyBracket;whiteSpace=wrap;html=1;rounded=1;rotation=-180;" parent="6W5ZjQAP1qN65vsEq8g1-1" vertex="1">
          <mxGeometry x="197" y="538" width="20" height="159" as="geometry" />
        </mxCell>
        <mxCell id="iHU-u8DEtRdlDgTZo3jV-3" style="edgeStyle=orthogonalEdgeStyle;rounded=1;orthogonalLoop=1;jettySize=auto;html=1;exitX=0.1;exitY=0.5;exitDx=0;exitDy=0;exitPerimeter=0;entryX=0;entryY=0.5;entryDx=0;entryDy=0;strokeColor=#000000;" parent="6W5ZjQAP1qN65vsEq8g1-1" source="iHU-u8DEtRdlDgTZo3jV-2" target="6W5ZjQAP1qN65vsEq8g1-10" edge="1">
          <mxGeometry relative="1" as="geometry" />
        </mxCell>
        <mxCell id="iHU-u8DEtRdlDgTZo3jV-2" value="" style="shape=curlyBracket;whiteSpace=wrap;html=1;rounded=1;rotation=-180;" parent="6W5ZjQAP1qN65vsEq8g1-1" vertex="1">
          <mxGeometry x="234" y="89" width="20" height="230" as="geometry" />
        </mxCell>
      </root>
    </mxGraphModel>
  </diagram>
  <diagram id="c8cwMGSISskRt7WBFvnw" name="NIFI">
    <mxGraphModel dx="1550" dy="1653" grid="0" gridSize="10" guides="1" tooltips="1" connect="1" arrows="1" fold="1" page="0" pageScale="1" pageWidth="850" pageHeight="1100" math="0" shadow="0">
      <root>
        <mxCell id="0zdOujSBh4_OUanKp88U-0" />
        <mxCell id="0zdOujSBh4_OUanKp88U-1" parent="0zdOujSBh4_OUanKp88U-0" />
        <mxCell id="0zdOujSBh4_OUanKp88U-2" value="" style="rounded=1;whiteSpace=wrap;html=1;dashed=1;strokeWidth=2;" parent="0zdOujSBh4_OUanKp88U-1" vertex="1">
          <mxGeometry x="45" y="123" width="211" height="317" as="geometry" />
        </mxCell>
        <mxCell id="0zdOujSBh4_OUanKp88U-3" value="S3 Ingest (Landing Zone)" style="rounded=0;whiteSpace=wrap;html=1;fillColor=#FFFF00;strokeColor=#FFFF00;" parent="0zdOujSBh4_OUanKp88U-1" vertex="1">
          <mxGeometry x="85" y="180" width="120" height="60" as="geometry" />
        </mxCell>
        <mxCell id="0zdOujSBh4_OUanKp88U-4" value="S3 Ingest (External)" style="rounded=0;whiteSpace=wrap;html=1;strokeColor=#FFFF00;fillColor=#FFFF00;" parent="0zdOujSBh4_OUanKp88U-1" vertex="1">
          <mxGeometry x="85" y="257" width="120" height="60" as="geometry" />
        </mxCell>
        <mxCell id="0zdOujSBh4_OUanKp88U-5" value="IDL Listener" style="rounded=0;whiteSpace=wrap;html=1;strokeColor=#FFFF00;fillColor=#FFFF00;" parent="0zdOujSBh4_OUanKp88U-1" vertex="1">
          <mxGeometry x="1113" y="117" width="101" height="46" as="geometry" />
        </mxCell>
        <mxCell id="0zdOujSBh4_OUanKp88U-6" value="RMM Ingest Queue" style="rounded=0;whiteSpace=wrap;html=1;strokeColor=#FFFF00;fillColor=#FFFF00;" parent="0zdOujSBh4_OUanKp88U-1" vertex="1">
          <mxGeometry x="837" y="23" width="120" height="60" as="geometry" />
        </mxCell>
        <mxCell id="0zdOujSBh4_OUanKp88U-7" value="Update Metadata Store" style="rounded=0;whiteSpace=wrap;html=1;strokeColor=#FFFF00;fillColor=#FFFF00;" parent="0zdOujSBh4_OUanKp88U-1" vertex="1">
          <mxGeometry x="614" y="540" width="120" height="60" as="geometry" />
        </mxCell>
        <mxCell id="0zdOujSBh4_OUanKp88U-8" value="GUIDE Registration" style="rounded=0;whiteSpace=wrap;html=1;strokeColor=#FFFF00;fillColor=#FFFF00;" parent="0zdOujSBh4_OUanKp88U-1" vertex="1">
          <mxGeometry x="317" y="540" width="120" height="60" as="geometry" />
        </mxCell>
        <mxCell id="0zdOujSBh4_OUanKp88U-9" value="Routing Service" style="rounded=0;whiteSpace=wrap;html=1;strokeColor=#FFFF00;fillColor=#FFFF00;" parent="0zdOujSBh4_OUanKp88U-1" vertex="1">
          <mxGeometry x="614" y="257" width="120" height="60" as="geometry" />
        </mxCell>
        <mxCell id="0zdOujSBh4_OUanKp88U-10" value="Extract Object" style="rounded=0;whiteSpace=wrap;html=1;strokeColor=#FFFF00;fillColor=#FFFF00;" parent="0zdOujSBh4_OUanKp88U-1" vertex="1">
          <mxGeometry x="320" y="257" width="120" height="60" as="geometry" />
        </mxCell>
        <mxCell id="0zdOujSBh4_OUanKp88U-11" value="Post to Error Table" style="rounded=0;whiteSpace=wrap;html=1;strokeColor=#FFFF00;fillColor=#FFFF00;" parent="0zdOujSBh4_OUanKp88U-1" vertex="1">
          <mxGeometry x="323" y="28" width="120" height="60" as="geometry" />
        </mxCell>
        <mxCell id="0zdOujSBh4_OUanKp88U-12" value="SQS Queue Listener/Ingest" style="rounded=0;whiteSpace=wrap;html=1;strokeColor=#FFFF00;fillColor=#FFFF00;" parent="0zdOujSBh4_OUanKp88U-1" vertex="1">
          <mxGeometry x="85" y="334" width="120" height="60" as="geometry" />
        </mxCell>
        <mxCell id="0zdOujSBh4_OUanKp88U-13" value="Ingest Processors" style="text;html=1;strokeColor=none;align=center;verticalAlign=middle;whiteSpace=wrap;rounded=0;fillColor=#ffffff;fontSize=14;fontStyle=1" parent="0zdOujSBh4_OUanKp88U-1" vertex="1">
          <mxGeometry x="87.5" y="143" width="115" height="20" as="geometry" />
        </mxCell>
        <mxCell id="0zdOujSBh4_OUanKp88U-14" value="MINT" style="rounded=0;whiteSpace=wrap;html=1;strokeColor=#FFFF00;fillColor=#FFFF00;" parent="0zdOujSBh4_OUanKp88U-1" vertex="1">
          <mxGeometry x="978" y="212" width="120" height="60" as="geometry" />
        </mxCell>
        <mxCell id="0zdOujSBh4_OUanKp88U-15" value="Post to IMS Data Lake" style="rounded=0;whiteSpace=wrap;html=1;strokeColor=#FFFF00;fillColor=#FFFF00;" parent="0zdOujSBh4_OUanKp88U-1" vertex="1">
          <mxGeometry x="978" y="317.5" width="120" height="60" as="geometry" />
        </mxCell>
        <mxCell id="0zdOujSBh4_OUanKp88U-16" value="Post to IDL" style="rounded=0;whiteSpace=wrap;html=1;strokeColor=#FFFF00;fillColor=#FFFF00;" parent="0zdOujSBh4_OUanKp88U-1" vertex="1">
          <mxGeometry x="1184" y="212" width="120" height="60" as="geometry" />
        </mxCell>
        <mxCell id="0zdOujSBh4_OUanKp88U-17" value="GUIDE Update&lt;span style=&quot;color: rgba(0 , 0 , 0 , 0) ; font-family: monospace ; font-size: 0px&quot;&gt;%3CmxGraphModel%3E%3Croot%3E%3CmxCell%20id%3D%220%22%2F%3E%3CmxCell%20id%3D%221%22%20parent%3D%220%22%2F%3E%3CmxCell%20id%3D%222%22%20value%3D%22%22%20style%3D%22rounded%3D0%3BwhiteSpace%3Dwrap%3Bhtml%3D1%3BstrokeColor%3D%23FFFF00%3BfillColor%3D%23FFFF00%3B%22%20vertex%3D%221%22%20parent%3D%221%22%3E%3CmxGeometry%20x%3D%221018%22%20y%3D%22146%22%20width%3D%22120%22%20height%3D%2260%22%20as%3D%22geometry%22%2F%3E%3C%2FmxCell%3E%3C%2Froot%3E%3C%2FmxGraphModel%3E&lt;/span&gt;" style="rounded=0;whiteSpace=wrap;html=1;strokeColor=#FFFF00;fillColor=#FFFF00;" parent="0zdOujSBh4_OUanKp88U-1" vertex="1">
          <mxGeometry x="861" y="540" width="120" height="60" as="geometry" />
        </mxCell>
        <mxCell id="0zdOujSBh4_OUanKp88U-18" value="IMS Data Lake Listener" style="rounded=0;whiteSpace=wrap;html=1;strokeColor=#FFFF00;fillColor=#FFFF00;" parent="0zdOujSBh4_OUanKp88U-1" vertex="1">
          <mxGeometry x="1090" y="401" width="101" height="46" as="geometry" />
        </mxCell>
        <mxCell id="0zdOujSBh4_OUanKp88U-19" value="" style="endArrow=none;html=1;fontSize=14;" parent="0zdOujSBh4_OUanKp88U-1" edge="1">
          <mxGeometry width="50" height="50" relative="1" as="geometry">
            <mxPoint x="1106" y="245" as="sourcePoint" />
            <mxPoint x="1175" y="245.5" as="targetPoint" />
          </mxGeometry>
        </mxCell>
        <mxCell id="0zdOujSBh4_OUanKp88U-20" value="" style="endArrow=classic;html=1;fontSize=14;" parent="0zdOujSBh4_OUanKp88U-1" edge="1">
          <mxGeometry width="50" height="50" relative="1" as="geometry">
            <mxPoint x="210" y="294" as="sourcePoint" />
            <mxPoint x="309" y="294" as="targetPoint" />
          </mxGeometry>
        </mxCell>
        <mxCell id="0zdOujSBh4_OUanKp88U-21" value="" style="endArrow=classic;html=1;fontSize=14;" parent="0zdOujSBh4_OUanKp88U-1" edge="1">
          <mxGeometry width="50" height="50" relative="1" as="geometry">
            <mxPoint x="382.28999999999996" y="251.5" as="sourcePoint" />
            <mxPoint x="382.28999999999996" y="93.63999999999999" as="targetPoint" />
          </mxGeometry>
        </mxCell>
        <mxCell id="0zdOujSBh4_OUanKp88U-22" value="" style="endArrow=classic;html=1;fontSize=14;" parent="0zdOujSBh4_OUanKp88U-1" edge="1">
          <mxGeometry width="50" height="50" relative="1" as="geometry">
            <mxPoint x="380.5" y="342" as="sourcePoint" />
            <mxPoint x="381" y="521" as="targetPoint" />
          </mxGeometry>
        </mxCell>
        <mxCell id="0zdOujSBh4_OUanKp88U-23" value="" style="endArrow=classic;html=1;fontSize=14;" parent="0zdOujSBh4_OUanKp88U-1" edge="1">
          <mxGeometry width="50" height="50" relative="1" as="geometry">
            <mxPoint x="457" y="289" as="sourcePoint" />
            <mxPoint x="599" y="289" as="targetPoint" />
          </mxGeometry>
        </mxCell>
        <mxCell id="0zdOujSBh4_OUanKp88U-24" value="" style="endArrow=classic;html=1;fontSize=14;" parent="0zdOujSBh4_OUanKp88U-1" edge="1">
          <mxGeometry width="50" height="50" relative="1" as="geometry">
            <mxPoint x="855" y="572" as="sourcePoint" />
            <mxPoint x="752" y="572" as="targetPoint" />
          </mxGeometry>
        </mxCell>
        <mxCell id="0zdOujSBh4_OUanKp88U-25" value="" style="edgeStyle=orthogonalEdgeStyle;elbow=horizontal;endArrow=none;html=1;fontSize=14;strokeColor=#FF0000;endFill=0;startArrow=classic;startFill=1;" parent="0zdOujSBh4_OUanKp88U-1" edge="1">
          <mxGeometry width="50" height="50" relative="1" as="geometry">
            <mxPoint x="936" y="89" as="sourcePoint" />
            <mxPoint x="1073" y="426" as="targetPoint" />
            <Array as="points">
              <mxPoint x="936" y="426" />
              <mxPoint x="1030" y="426" />
            </Array>
          </mxGeometry>
        </mxCell>
        <mxCell id="0zdOujSBh4_OUanKp88U-26" value="" style="edgeStyle=orthogonalEdgeStyle;elbow=horizontal;endArrow=classic;html=1;fontSize=14;" parent="0zdOujSBh4_OUanKp88U-1" edge="1">
          <mxGeometry width="50" height="50" relative="1" as="geometry">
            <mxPoint x="738" y="295" as="sourcePoint" />
            <mxPoint x="961" y="337" as="targetPoint" />
            <Array as="points">
              <mxPoint x="818" y="295" />
              <mxPoint x="818" y="337" />
            </Array>
          </mxGeometry>
        </mxCell>
        <mxCell id="0zdOujSBh4_OUanKp88U-27" value="" style="edgeStyle=orthogonalEdgeStyle;elbow=horizontal;endArrow=classic;html=1;fontSize=14;" parent="0zdOujSBh4_OUanKp88U-1" edge="1">
          <mxGeometry width="50" height="50" relative="1" as="geometry">
            <mxPoint x="740" y="276" as="sourcePoint" />
            <mxPoint x="963" y="236" as="targetPoint" />
            <Array as="points">
              <mxPoint x="816" y="276" />
              <mxPoint x="816" y="236" />
            </Array>
          </mxGeometry>
        </mxCell>
        <mxCell id="0zdOujSBh4_OUanKp88U-28" value="" style="strokeWidth=2;html=1;shape=mxgraph.flowchart.annotation_2;align=left;labelPosition=right;pointerEvents=1;fillColor=#FFFF00;fontSize=14;rotation=-180;" parent="0zdOujSBh4_OUanKp88U-1" vertex="1">
          <mxGeometry x="210" y="204" width="50" height="179" as="geometry" />
        </mxCell>
        <mxCell id="0zdOujSBh4_OUanKp88U-29" value="" style="edgeStyle=orthogonalEdgeStyle;elbow=horizontal;endArrow=none;html=1;fontSize=14;endFill=0;strokeColor=#00FF00;" parent="0zdOujSBh4_OUanKp88U-1" edge="1">
          <mxGeometry width="50" height="50" relative="1" as="geometry">
            <mxPoint x="1084" y="146" as="sourcePoint" />
            <mxPoint x="905" y="527" as="targetPoint" />
            <Array as="points">
              <mxPoint x="1097" y="146" />
              <mxPoint x="905" y="146" />
              <mxPoint x="905" y="527" />
            </Array>
          </mxGeometry>
        </mxCell>
        <mxCell id="0zdOujSBh4_OUanKp88U-30" value="" style="edgeStyle=orthogonalEdgeStyle;elbow=horizontal;endArrow=none;html=1;fontSize=14;endFill=0;strokeColor=#00FF00;" parent="0zdOujSBh4_OUanKp88U-1" edge="1">
          <mxGeometry width="50" height="50" relative="1" as="geometry">
            <mxPoint x="1166" y="103" as="sourcePoint" />
            <mxPoint x="979" y="50" as="targetPoint" />
            <Array as="points">
              <mxPoint x="1166" y="50" />
            </Array>
          </mxGeometry>
        </mxCell>
        <mxCell id="0zdOujSBh4_OUanKp88U-31" value="" style="edgeStyle=elbowEdgeStyle;elbow=vertical;endArrow=none;html=1;fontSize=14;endFill=0;" parent="0zdOujSBh4_OUanKp88U-1" edge="1">
          <mxGeometry width="50" height="50" relative="1" as="geometry">
            <mxPoint x="1114" y="340" as="sourcePoint" />
            <mxPoint x="1149" y="387" as="targetPoint" />
            <Array as="points">
              <mxPoint x="1157" y="340" />
            </Array>
          </mxGeometry>
        </mxCell>
        <mxCell id="0zdOujSBh4_OUanKp88U-32" value="" style="edgeStyle=elbowEdgeStyle;elbow=vertical;endArrow=none;html=1;fontSize=14;endFill=0;" parent="0zdOujSBh4_OUanKp88U-1" edge="1">
          <mxGeometry width="50" height="50" relative="1" as="geometry">
            <mxPoint x="1221" y="146.9999999999999" as="sourcePoint" />
            <mxPoint x="1256" y="204" as="targetPoint" />
            <Array as="points">
              <mxPoint x="1264" y="147" />
            </Array>
          </mxGeometry>
        </mxCell>
        <mxCell id="0zdOujSBh4_OUanKp88U-33" value="" style="edgeStyle=orthogonalEdgeStyle;elbow=horizontal;endArrow=classic;html=1;fontSize=14;" parent="0zdOujSBh4_OUanKp88U-1" edge="1">
          <mxGeometry width="50" height="50" relative="1" as="geometry">
            <mxPoint x="469" y="318" as="sourcePoint" />
            <mxPoint x="599" y="580" as="targetPoint" />
            <Array as="points">
              <mxPoint x="549" y="318" />
              <mxPoint x="549" y="580" />
            </Array>
          </mxGeometry>
        </mxCell>
        <mxCell id="0zdOujSBh4_OUanKp88U-34" value="" style="edgeStyle=segmentEdgeStyle;endArrow=none;html=1;strokeColor=#FF0000;fontSize=14;endFill=0;startArrow=classic;startFill=1;" parent="0zdOujSBh4_OUanKp88U-1" edge="1">
          <mxGeometry width="50" height="50" relative="1" as="geometry">
            <mxPoint x="1010" y="573" as="sourcePoint" />
            <mxPoint x="1149" y="454" as="targetPoint" />
            <Array as="points">
              <mxPoint x="1099" y="573" />
              <mxPoint x="1149" y="573" />
            </Array>
          </mxGeometry>
        </mxCell>
        <mxCell id="0zdOujSBh4_OUanKp88U-35" value="Eva 2.0 NIFI" style="text;html=1;strokeColor=none;fillColor=none;align=center;verticalAlign=middle;whiteSpace=wrap;rounded=0;fontSize=20;fontStyle=1" parent="0zdOujSBh4_OUanKp88U-1" vertex="1">
          <mxGeometry x="45" y="-15" width="144" height="20" as="geometry" />
        </mxCell>
      </root>
    </mxGraphModel>
  </diagram>
  <diagram name="Copy of NIFI" id="QLw11Z97XHEsa452HMRk">
    <mxGraphModel dx="1329" dy="1474" grid="1" gridSize="10" guides="1" tooltips="1" connect="1" arrows="1" fold="1" page="0" pageScale="1" pageWidth="850" pageHeight="1100" math="0" shadow="0">
      <root>
        <mxCell id="Xdz_WmYAH5d1BmsIz-3B-0" />
        <mxCell id="Xdz_WmYAH5d1BmsIz-3B-1" parent="Xdz_WmYAH5d1BmsIz-3B-0" />
        <mxCell id="Xdz_WmYAH5d1BmsIz-3B-2" value="" style="rounded=1;whiteSpace=wrap;html=1;dashed=1;strokeWidth=2;" parent="Xdz_WmYAH5d1BmsIz-3B-1" vertex="1">
          <mxGeometry x="45" y="123" width="211" height="317" as="geometry" />
        </mxCell>
        <mxCell id="Xdz_WmYAH5d1BmsIz-3B-3" value="S3 Ingest (Landing Zone)" style="rounded=0;whiteSpace=wrap;html=1;fillColor=#FFFF00;strokeColor=#FFFF00;" parent="Xdz_WmYAH5d1BmsIz-3B-1" vertex="1">
          <mxGeometry x="85" y="180" width="120" height="60" as="geometry" />
        </mxCell>
        <mxCell id="Xdz_WmYAH5d1BmsIz-3B-4" value="S3 Ingest (External)" style="rounded=0;whiteSpace=wrap;html=1;strokeColor=#FFFF00;fillColor=#FFFF00;" parent="Xdz_WmYAH5d1BmsIz-3B-1" vertex="1">
          <mxGeometry x="85" y="257" width="120" height="60" as="geometry" />
        </mxCell>
        <mxCell id="Xdz_WmYAH5d1BmsIz-3B-46" style="edgeStyle=orthogonalEdgeStyle;rounded=1;orthogonalLoop=1;jettySize=auto;html=1;exitX=0.5;exitY=0;exitDx=0;exitDy=0;entryX=1;entryY=0.5;entryDx=0;entryDy=0;strokeColor=#00FF00;" parent="Xdz_WmYAH5d1BmsIz-3B-1" source="Xdz_WmYAH5d1BmsIz-3B-5" target="Xdz_WmYAH5d1BmsIz-3B-6" edge="1">
          <mxGeometry relative="1" as="geometry" />
        </mxCell>
        <mxCell id="Xdz_WmYAH5d1BmsIz-3B-47" style="edgeStyle=orthogonalEdgeStyle;rounded=1;orthogonalLoop=1;jettySize=auto;html=1;exitX=0;exitY=0.5;exitDx=0;exitDy=0;entryX=0.5;entryY=0;entryDx=0;entryDy=0;strokeColor=#00FF00;" parent="Xdz_WmYAH5d1BmsIz-3B-1" source="Xdz_WmYAH5d1BmsIz-3B-5" target="Xdz_WmYAH5d1BmsIz-3B-17" edge="1">
          <mxGeometry relative="1" as="geometry">
            <Array as="points">
              <mxPoint x="890" y="140" />
              <mxPoint x="890" y="540" />
            </Array>
          </mxGeometry>
        </mxCell>
        <mxCell id="Xdz_WmYAH5d1BmsIz-3B-5" value="IDL Listener" style="rounded=0;whiteSpace=wrap;html=1;strokeColor=#FFFF00;fillColor=#FFFF00;" parent="Xdz_WmYAH5d1BmsIz-3B-1" vertex="1">
          <mxGeometry x="1113" y="117" width="101" height="46" as="geometry" />
        </mxCell>
        <mxCell id="Xdz_WmYAH5d1BmsIz-3B-6" value="RMM Ingest Queue" style="rounded=0;whiteSpace=wrap;html=1;strokeColor=#FFFF00;fillColor=#FFFF00;" parent="Xdz_WmYAH5d1BmsIz-3B-1" vertex="1">
          <mxGeometry x="837" y="23" width="120" height="60" as="geometry" />
        </mxCell>
        <mxCell id="Xdz_WmYAH5d1BmsIz-3B-7" value="Update Metadata Store" style="rounded=0;whiteSpace=wrap;html=1;strokeColor=#FFFF00;fillColor=#FFFF00;" parent="Xdz_WmYAH5d1BmsIz-3B-1" vertex="1">
          <mxGeometry x="614" y="540" width="120" height="60" as="geometry" />
        </mxCell>
        <mxCell id="Xdz_WmYAH5d1BmsIz-3B-8" value="GUIDE Registration" style="rounded=0;whiteSpace=wrap;html=1;strokeColor=#FFFF00;fillColor=#FFFF00;" parent="Xdz_WmYAH5d1BmsIz-3B-1" vertex="1">
          <mxGeometry x="323" y="540" width="120" height="60" as="geometry" />
        </mxCell>
        <mxCell id="Xdz_WmYAH5d1BmsIz-3B-41" style="edgeStyle=orthogonalEdgeStyle;rounded=1;orthogonalLoop=1;jettySize=auto;html=1;exitX=1;exitY=0.25;exitDx=0;exitDy=0;entryX=0;entryY=0.5;entryDx=0;entryDy=0;strokeColor=#000000;" parent="Xdz_WmYAH5d1BmsIz-3B-1" source="Xdz_WmYAH5d1BmsIz-3B-9" target="Xdz_WmYAH5d1BmsIz-3B-14" edge="1">
          <mxGeometry relative="1" as="geometry" />
        </mxCell>
        <mxCell id="Xdz_WmYAH5d1BmsIz-3B-42" style="edgeStyle=orthogonalEdgeStyle;rounded=1;orthogonalLoop=1;jettySize=auto;html=1;exitX=1;exitY=0.75;exitDx=0;exitDy=0;entryX=0;entryY=0.5;entryDx=0;entryDy=0;strokeColor=#000000;" parent="Xdz_WmYAH5d1BmsIz-3B-1" source="Xdz_WmYAH5d1BmsIz-3B-9" target="Xdz_WmYAH5d1BmsIz-3B-15" edge="1">
          <mxGeometry relative="1" as="geometry" />
        </mxCell>
        <mxCell id="Xdz_WmYAH5d1BmsIz-3B-9" value="Routing Service" style="rounded=0;whiteSpace=wrap;html=1;strokeColor=#FFFF00;fillColor=#FFFF00;" parent="Xdz_WmYAH5d1BmsIz-3B-1" vertex="1">
          <mxGeometry x="614" y="257" width="120" height="60" as="geometry" />
        </mxCell>
        <mxCell id="Xdz_WmYAH5d1BmsIz-3B-36" style="edgeStyle=orthogonalEdgeStyle;rounded=1;orthogonalLoop=1;jettySize=auto;html=1;exitX=0.5;exitY=1;exitDx=0;exitDy=0;entryX=0.5;entryY=0;entryDx=0;entryDy=0;strokeColor=#000000;" parent="Xdz_WmYAH5d1BmsIz-3B-1" source="Xdz_WmYAH5d1BmsIz-3B-10" target="Xdz_WmYAH5d1BmsIz-3B-8" edge="1">
          <mxGeometry relative="1" as="geometry" />
        </mxCell>
        <mxCell id="Xdz_WmYAH5d1BmsIz-3B-37" style="edgeStyle=orthogonalEdgeStyle;rounded=1;orthogonalLoop=1;jettySize=auto;html=1;exitX=0.5;exitY=0;exitDx=0;exitDy=0;entryX=0.5;entryY=1;entryDx=0;entryDy=0;strokeColor=#000000;" parent="Xdz_WmYAH5d1BmsIz-3B-1" source="Xdz_WmYAH5d1BmsIz-3B-10" target="Xdz_WmYAH5d1BmsIz-3B-11" edge="1">
          <mxGeometry relative="1" as="geometry" />
        </mxCell>
        <mxCell id="Xdz_WmYAH5d1BmsIz-3B-38" style="edgeStyle=orthogonalEdgeStyle;rounded=1;orthogonalLoop=1;jettySize=auto;html=1;exitX=1;exitY=0.5;exitDx=0;exitDy=0;entryX=0;entryY=0.5;entryDx=0;entryDy=0;strokeColor=#000000;" parent="Xdz_WmYAH5d1BmsIz-3B-1" source="Xdz_WmYAH5d1BmsIz-3B-10" target="Xdz_WmYAH5d1BmsIz-3B-9" edge="1">
          <mxGeometry relative="1" as="geometry" />
        </mxCell>
        <mxCell id="Xdz_WmYAH5d1BmsIz-3B-39" style="edgeStyle=orthogonalEdgeStyle;rounded=1;orthogonalLoop=1;jettySize=auto;html=1;exitX=1;exitY=0.75;exitDx=0;exitDy=0;entryX=0;entryY=0.5;entryDx=0;entryDy=0;strokeColor=#000000;" parent="Xdz_WmYAH5d1BmsIz-3B-1" source="Xdz_WmYAH5d1BmsIz-3B-10" target="Xdz_WmYAH5d1BmsIz-3B-7" edge="1">
          <mxGeometry relative="1" as="geometry" />
        </mxCell>
        <mxCell id="Xdz_WmYAH5d1BmsIz-3B-10" value="Extract Object" style="rounded=0;whiteSpace=wrap;html=1;strokeColor=#FFFF00;fillColor=#FFFF00;" parent="Xdz_WmYAH5d1BmsIz-3B-1" vertex="1">
          <mxGeometry x="323" y="257" width="120" height="60" as="geometry" />
        </mxCell>
        <mxCell id="Xdz_WmYAH5d1BmsIz-3B-11" value="Post to Error Table" style="rounded=0;whiteSpace=wrap;html=1;strokeColor=#FFFF00;fillColor=#FFFF00;" parent="Xdz_WmYAH5d1BmsIz-3B-1" vertex="1">
          <mxGeometry x="323" y="28" width="120" height="60" as="geometry" />
        </mxCell>
        <mxCell id="Xdz_WmYAH5d1BmsIz-3B-12" value="SQS Queue Listener/Ingest" style="rounded=0;whiteSpace=wrap;html=1;strokeColor=#FFFF00;fillColor=#FFFF00;" parent="Xdz_WmYAH5d1BmsIz-3B-1" vertex="1">
          <mxGeometry x="85" y="334" width="120" height="60" as="geometry" />
        </mxCell>
        <mxCell id="Xdz_WmYAH5d1BmsIz-3B-13" value="Ingest Processors" style="text;html=1;strokeColor=none;align=center;verticalAlign=middle;whiteSpace=wrap;rounded=0;fillColor=#ffffff;fontSize=14;fontStyle=1" parent="Xdz_WmYAH5d1BmsIz-3B-1" vertex="1">
          <mxGeometry x="87.5" y="143" width="115" height="20" as="geometry" />
        </mxCell>
        <mxCell id="Xdz_WmYAH5d1BmsIz-3B-44" style="edgeStyle=orthogonalEdgeStyle;rounded=1;orthogonalLoop=1;jettySize=auto;html=1;exitX=1;exitY=0.5;exitDx=0;exitDy=0;entryX=0;entryY=0.5;entryDx=0;entryDy=0;strokeColor=#000000;" parent="Xdz_WmYAH5d1BmsIz-3B-1" source="Xdz_WmYAH5d1BmsIz-3B-14" target="Xdz_WmYAH5d1BmsIz-3B-16" edge="1">
          <mxGeometry relative="1" as="geometry" />
        </mxCell>
        <mxCell id="Xdz_WmYAH5d1BmsIz-3B-14" value="MINT" style="rounded=0;whiteSpace=wrap;html=1;strokeColor=#FFFF00;fillColor=#FFFF00;" parent="Xdz_WmYAH5d1BmsIz-3B-1" vertex="1">
          <mxGeometry x="978" y="212" width="120" height="60" as="geometry" />
        </mxCell>
        <mxCell id="Xdz_WmYAH5d1BmsIz-3B-43" style="edgeStyle=orthogonalEdgeStyle;rounded=1;orthogonalLoop=1;jettySize=auto;html=1;exitX=1;exitY=0.5;exitDx=0;exitDy=0;entryX=0.5;entryY=0;entryDx=0;entryDy=0;strokeColor=#000000;" parent="Xdz_WmYAH5d1BmsIz-3B-1" source="Xdz_WmYAH5d1BmsIz-3B-15" target="Xdz_WmYAH5d1BmsIz-3B-18" edge="1">
          <mxGeometry relative="1" as="geometry" />
        </mxCell>
        <mxCell id="Xdz_WmYAH5d1BmsIz-3B-15" value="Post to IMS Data Lake" style="rounded=0;whiteSpace=wrap;html=1;strokeColor=#FFFF00;fillColor=#FFFF00;" parent="Xdz_WmYAH5d1BmsIz-3B-1" vertex="1">
          <mxGeometry x="978" y="317.5" width="120" height="60" as="geometry" />
        </mxCell>
        <mxCell id="Xdz_WmYAH5d1BmsIz-3B-45" style="edgeStyle=orthogonalEdgeStyle;rounded=1;orthogonalLoop=1;jettySize=auto;html=1;exitX=0.5;exitY=0;exitDx=0;exitDy=0;entryX=1;entryY=0.5;entryDx=0;entryDy=0;strokeColor=#000000;" parent="Xdz_WmYAH5d1BmsIz-3B-1" source="Xdz_WmYAH5d1BmsIz-3B-16" target="Xdz_WmYAH5d1BmsIz-3B-5" edge="1">
          <mxGeometry relative="1" as="geometry" />
        </mxCell>
        <mxCell id="Xdz_WmYAH5d1BmsIz-3B-16" value="Post to IDL" style="rounded=0;whiteSpace=wrap;html=1;strokeColor=#FFFF00;fillColor=#FFFF00;" parent="Xdz_WmYAH5d1BmsIz-3B-1" vertex="1">
          <mxGeometry x="1184" y="212" width="120" height="60" as="geometry" />
        </mxCell>
        <mxCell id="Xdz_WmYAH5d1BmsIz-3B-40" style="edgeStyle=orthogonalEdgeStyle;rounded=1;orthogonalLoop=1;jettySize=auto;html=1;exitX=0;exitY=0.5;exitDx=0;exitDy=0;entryX=1;entryY=0.5;entryDx=0;entryDy=0;strokeColor=#000000;" parent="Xdz_WmYAH5d1BmsIz-3B-1" source="Xdz_WmYAH5d1BmsIz-3B-17" target="Xdz_WmYAH5d1BmsIz-3B-7" edge="1">
          <mxGeometry relative="1" as="geometry" />
        </mxCell>
        <mxCell id="Xdz_WmYAH5d1BmsIz-3B-17" value="GUIDE Update&lt;span style=&quot;color: rgba(0 , 0 , 0 , 0) ; font-family: monospace ; font-size: 0px&quot;&gt;%3CmxGraphModel%3E%3Croot%3E%3CmxCell%20id%3D%220%22%2F%3E%3CmxCell%20id%3D%221%22%20parent%3D%220%22%2F%3E%3CmxCell%20id%3D%222%22%20value%3D%22%22%20style%3D%22rounded%3D0%3BwhiteSpace%3Dwrap%3Bhtml%3D1%3BstrokeColor%3D%23FFFF00%3BfillColor%3D%23FFFF00%3B%22%20vertex%3D%221%22%20parent%3D%221%22%3E%3CmxGeometry%20x%3D%221018%22%20y%3D%22146%22%20width%3D%22120%22%20height%3D%2260%22%20as%3D%22geometry%22%2F%3E%3C%2FmxCell%3E%3C%2Froot%3E%3C%2FmxGraphModel%3E&lt;/span&gt;" style="rounded=0;whiteSpace=wrap;html=1;strokeColor=#FFFF00;fillColor=#FFFF00;" parent="Xdz_WmYAH5d1BmsIz-3B-1" vertex="1">
          <mxGeometry x="861" y="540" width="120" height="60" as="geometry" />
        </mxCell>
        <mxCell id="Xdz_WmYAH5d1BmsIz-3B-48" style="edgeStyle=orthogonalEdgeStyle;rounded=1;orthogonalLoop=1;jettySize=auto;html=1;exitX=0;exitY=0.5;exitDx=0;exitDy=0;entryX=0.75;entryY=1;entryDx=0;entryDy=0;strokeColor=#FF0000;" parent="Xdz_WmYAH5d1BmsIz-3B-1" source="Xdz_WmYAH5d1BmsIz-3B-18" target="Xdz_WmYAH5d1BmsIz-3B-6" edge="1">
          <mxGeometry relative="1" as="geometry" />
        </mxCell>
        <mxCell id="Xdz_WmYAH5d1BmsIz-3B-49" style="edgeStyle=orthogonalEdgeStyle;rounded=1;orthogonalLoop=1;jettySize=auto;html=1;exitX=0.5;exitY=1;exitDx=0;exitDy=0;entryX=1;entryY=0.5;entryDx=0;entryDy=0;strokeColor=#FF0000;" parent="Xdz_WmYAH5d1BmsIz-3B-1" source="Xdz_WmYAH5d1BmsIz-3B-18" target="Xdz_WmYAH5d1BmsIz-3B-17" edge="1">
          <mxGeometry relative="1" as="geometry" />
        </mxCell>
        <mxCell id="Xdz_WmYAH5d1BmsIz-3B-18" value="IMS Data Lake Listener" style="rounded=0;whiteSpace=wrap;html=1;strokeColor=#FFFF00;fillColor=#FFFF00;" parent="Xdz_WmYAH5d1BmsIz-3B-1" vertex="1">
          <mxGeometry x="1090" y="401" width="101" height="46" as="geometry" />
        </mxCell>
        <mxCell id="Xdz_WmYAH5d1BmsIz-3B-35" value="Eva 2.0 NIFI" style="text;html=1;strokeColor=none;fillColor=none;align=center;verticalAlign=middle;whiteSpace=wrap;rounded=0;fontSize=20;fontStyle=1" parent="Xdz_WmYAH5d1BmsIz-3B-1" vertex="1">
          <mxGeometry x="45" y="-15" width="144" height="20" as="geometry" />
        </mxCell>
        <mxCell id="Xdz_WmYAH5d1BmsIz-3B-51" style="edgeStyle=orthogonalEdgeStyle;rounded=1;orthogonalLoop=1;jettySize=auto;html=1;exitX=0.1;exitY=0.5;exitDx=0;exitDy=0;exitPerimeter=0;entryX=0;entryY=0.5;entryDx=0;entryDy=0;" parent="Xdz_WmYAH5d1BmsIz-3B-1" source="Xdz_WmYAH5d1BmsIz-3B-50" target="Xdz_WmYAH5d1BmsIz-3B-10" edge="1">
          <mxGeometry relative="1" as="geometry" />
        </mxCell>
        <mxCell id="Xdz_WmYAH5d1BmsIz-3B-50" value="" style="shape=curlyBracket;whiteSpace=wrap;html=1;rounded=1;size=0.5;rotation=-180;" parent="Xdz_WmYAH5d1BmsIz-3B-1" vertex="1">
          <mxGeometry x="220" y="181" width="20" height="212" as="geometry" />
        </mxCell>
      </root>
    </mxGraphModel>
  </diagram>
  <diagram id="6rxUjMsQtcFcToB8YHgT" name="File Service">
    <mxGraphModel dx="1729" dy="1474" grid="0" gridSize="10" guides="1" tooltips="1" connect="1" arrows="1" fold="1" page="0" pageScale="1" pageWidth="850" pageHeight="1100" math="0" shadow="0">
      <root>
        <mxCell id="rdWnOtAYXpx5rYpskT7k-0" />
        <mxCell id="rdWnOtAYXpx5rYpskT7k-1" parent="rdWnOtAYXpx5rYpskT7k-0" />
        <mxCell id="rdWnOtAYXpx5rYpskT7k-2" value="Enterprise Authentication" style="rounded=0;whiteSpace=wrap;html=1;fillColor=#3399FF;" parent="rdWnOtAYXpx5rYpskT7k-1" vertex="1">
          <mxGeometry x="-83" y="347" width="120" height="60" as="geometry" />
        </mxCell>
        <mxCell id="rdWnOtAYXpx5rYpskT7k-3" value="EVA API Gateway" style="rounded=0;whiteSpace=wrap;html=1;fillColor=#3399FF;" parent="rdWnOtAYXpx5rYpskT7k-1" vertex="1">
          <mxGeometry x="-12" y="98" width="120" height="60" as="geometry" />
        </mxCell>
        <mxCell id="rdWnOtAYXpx5rYpskT7k-4" value="File Service*" style="rounded=0;whiteSpace=wrap;html=1;strokeColor=#FFFF00;fillColor=#FFFF00;" parent="rdWnOtAYXpx5rYpskT7k-1" vertex="1">
          <mxGeometry x="152" y="203" width="120" height="60" as="geometry" />
        </mxCell>
        <mxCell id="rdWnOtAYXpx5rYpskT7k-5" value="Catalog&lt;br&gt;Service" style="rounded=0;whiteSpace=wrap;html=1;strokeColor=#FFFF00;fillColor=#FFFF00;" parent="rdWnOtAYXpx5rYpskT7k-1" vertex="1">
          <mxGeometry x="267" y="313" width="120" height="60" as="geometry" />
        </mxCell>
        <mxCell id="rdWnOtAYXpx5rYpskT7k-6" value="Object Storage" style="shape=cylinder3;whiteSpace=wrap;html=1;boundedLbl=1;backgroundOutline=1;size=15;strokeColor=#FFFF00;fillColor=#FFFF00;rounded=0;" parent="rdWnOtAYXpx5rYpskT7k-1" vertex="1">
          <mxGeometry x="484" y="123" width="77" height="80" as="geometry" />
        </mxCell>
        <mxCell id="rdWnOtAYXpx5rYpskT7k-7" value="Catalog Storage" style="shape=cylinder3;whiteSpace=wrap;html=1;boundedLbl=1;backgroundOutline=1;size=15;strokeColor=#FFFF00;fillColor=#FFFF00;rounded=0;" parent="rdWnOtAYXpx5rYpskT7k-1" vertex="1">
          <mxGeometry x="488" y="222" width="78" height="80" as="geometry" />
        </mxCell>
        <mxCell id="rdWnOtAYXpx5rYpskT7k-8" value="Metadata Storage" style="shape=cylinder3;whiteSpace=wrap;html=1;boundedLbl=1;backgroundOutline=1;size=15;fillColor=#3399FF;" parent="rdWnOtAYXpx5rYpskT7k-1" vertex="1">
          <mxGeometry x="484" y="24" width="77" height="80" as="geometry" />
        </mxCell>
        <mxCell id="rdWnOtAYXpx5rYpskT7k-9" value="" style="edgeStyle=elbowEdgeStyle;elbow=vertical;endArrow=classic;html=1;strokeColor=#FFD966;" parent="rdWnOtAYXpx5rYpskT7k-1" edge="1">
          <mxGeometry width="50" height="50" relative="1" as="geometry">
            <mxPoint x="206" y="271" as="sourcePoint" />
            <mxPoint x="42" y="373" as="targetPoint" />
            <Array as="points">
              <mxPoint x="116" y="373" />
            </Array>
          </mxGeometry>
        </mxCell>
        <mxCell id="rdWnOtAYXpx5rYpskT7k-10" value="" style="edgeStyle=elbowEdgeStyle;elbow=vertical;endArrow=classic;html=1;strokeColor=#FFD966;" parent="rdWnOtAYXpx5rYpskT7k-1" edge="1">
          <mxGeometry width="50" height="50" relative="1" as="geometry">
            <mxPoint x="209" y="189" as="sourcePoint" />
            <mxPoint x="471" y="85" as="targetPoint" />
            <Array as="points">
              <mxPoint x="350" y="85" />
            </Array>
          </mxGeometry>
        </mxCell>
        <mxCell id="rdWnOtAYXpx5rYpskT7k-12" value="" style="edgeStyle=elbowEdgeStyle;elbow=horizontal;endArrow=classic;html=1;strokeColor=#FFD966;" parent="rdWnOtAYXpx5rYpskT7k-1" edge="1">
          <mxGeometry width="50" height="50" relative="1" as="geometry">
            <mxPoint x="276" y="222" as="sourcePoint" />
            <mxPoint x="473" y="172" as="targetPoint" />
          </mxGeometry>
        </mxCell>
        <mxCell id="rdWnOtAYXpx5rYpskT7k-13" value="" style="edgeStyle=elbowEdgeStyle;elbow=horizontal;endArrow=classic;html=1;strokeColor=#FFD966;" parent="rdWnOtAYXpx5rYpskT7k-1" edge="1">
          <mxGeometry width="50" height="50" relative="1" as="geometry">
            <mxPoint x="277" y="242" as="sourcePoint" />
            <mxPoint x="474" y="271" as="targetPoint" />
            <Array as="points">
              <mxPoint x="376" y="249" />
            </Array>
          </mxGeometry>
        </mxCell>
        <mxCell id="rdWnOtAYXpx5rYpskT7k-14" value="" style="edgeStyle=elbowEdgeStyle;elbow=horizontal;endArrow=classic;html=1;strokeColor=#00CC00;" parent="rdWnOtAYXpx5rYpskT7k-1" edge="1">
          <mxGeometry width="50" height="50" relative="1" as="geometry">
            <mxPoint x="110" y="128" as="sourcePoint" />
            <mxPoint x="179" y="199" as="targetPoint" />
            <Array as="points">
              <mxPoint x="179" y="153" />
            </Array>
          </mxGeometry>
        </mxCell>
        <mxCell id="rdWnOtAYXpx5rYpskT7k-15" value="" style="edgeStyle=elbowEdgeStyle;elbow=horizontal;endArrow=classic;html=1;strokeColor=#00CC00;" parent="rdWnOtAYXpx5rYpskT7k-1" edge="1">
          <mxGeometry width="50" height="50" relative="1" as="geometry">
            <mxPoint x="113" y="109" as="sourcePoint" />
            <mxPoint x="289" y="305" as="targetPoint" />
            <Array as="points">
              <mxPoint x="289" y="130" />
            </Array>
          </mxGeometry>
        </mxCell>
        <mxCell id="rdWnOtAYXpx5rYpskT7k-16" value="" style="edgeStyle=elbowEdgeStyle;elbow=vertical;endArrow=classic;html=1;strokeColor=#00CC00;" parent="rdWnOtAYXpx5rYpskT7k-1" edge="1">
          <mxGeometry width="50" height="50" relative="1" as="geometry">
            <mxPoint x="43" y="162" as="sourcePoint" />
            <mxPoint x="-4" y="339" as="targetPoint" />
          </mxGeometry>
        </mxCell>
        <mxCell id="leShlDSDKemooVHnEtB3-0" value="" style="edgeStyle=elbowEdgeStyle;elbow=vertical;endArrow=classic;html=1;exitX=1;exitY=0.5;exitDx=0;exitDy=0;" parent="rdWnOtAYXpx5rYpskT7k-1" source="rdWnOtAYXpx5rYpskT7k-5" edge="1">
          <mxGeometry width="50" height="50" relative="1" as="geometry">
            <mxPoint x="397" y="382" as="sourcePoint" />
            <mxPoint x="529" y="311" as="targetPoint" />
            <Array as="points">
              <mxPoint x="463" y="343" />
            </Array>
          </mxGeometry>
        </mxCell>
        <mxCell id="leShlDSDKemooVHnEtB3-1" value="File Service Calls Enterprise Authentication:&lt;br&gt;&lt;ul&gt;&lt;li style=&quot;text-align: left&quot;&gt;Validate User Credentials&lt;/li&gt;&lt;li&gt;&lt;div style=&quot;text-align: left&quot;&gt;Validate Object Attributes&lt;/div&gt;&lt;/li&gt;&lt;/ul&gt;" style="text;html=1;strokeColor=none;fillColor=none;align=center;verticalAlign=middle;whiteSpace=wrap;rounded=0;" parent="rdWnOtAYXpx5rYpskT7k-1" vertex="1">
          <mxGeometry x="-139" y="434" width="242" height="20" as="geometry" />
        </mxCell>
        <mxCell id="leShlDSDKemooVHnEtB3-4" value="File Service Calls Catalog Service:&lt;br&gt;&lt;ul&gt;&lt;li style=&quot;text-align: left&quot;&gt;Obtain policy protection for the files and/or metadata.&lt;/li&gt;&lt;/ul&gt;" style="text;html=1;strokeColor=none;fillColor=none;align=center;verticalAlign=middle;whiteSpace=wrap;rounded=0;" parent="rdWnOtAYXpx5rYpskT7k-1" vertex="1">
          <mxGeometry x="208" y="404" width="242" height="20" as="geometry" />
        </mxCell>
        <mxCell id="leShlDSDKemooVHnEtB3-5" value="&lt;div style=&quot;text-align: left&quot;&gt;File Service Calls Object Store:&lt;/div&gt;&lt;ul&gt;&lt;li style=&quot;text-align: left&quot;&gt;POST Objects to S3&lt;/li&gt;&lt;ul&gt;&lt;li style=&quot;text-align: left&quot;&gt;Update P&amp;amp;L Service&lt;/li&gt;&lt;/ul&gt;&lt;li style=&quot;text-align: left&quot;&gt;PUT Objects to S3 (update)&lt;/li&gt;&lt;ul&gt;&lt;li style=&quot;text-align: left&quot;&gt;This will take advantage of S3 versioning.&lt;/li&gt;&lt;li style=&quot;text-align: left&quot;&gt;Update P&amp;amp;L Service&lt;/li&gt;&lt;/ul&gt;&lt;li style=&quot;text-align: left&quot;&gt;&lt;span&gt;DELETE Objects from S3&lt;/span&gt;&lt;br&gt;&lt;/li&gt;&lt;ul&gt;&lt;li style=&quot;text-align: left&quot;&gt;Update P&amp;amp;L Service&lt;/li&gt;&lt;/ul&gt;&lt;li style=&quot;text-align: left&quot;&gt;Objects are stored as the flat file&lt;/li&gt;&lt;/ul&gt;&lt;div style=&quot;text-align: left&quot;&gt;&lt;/div&gt;&lt;div style=&quot;text-align: left&quot;&gt;&lt;br&gt;&lt;/div&gt;&lt;div style=&quot;text-align: left&quot;&gt;&amp;nbsp;&lt;/div&gt;" style="text;html=1;strokeColor=none;fillColor=none;align=center;verticalAlign=middle;whiteSpace=wrap;rounded=0;" parent="rdWnOtAYXpx5rYpskT7k-1" vertex="1">
          <mxGeometry x="584" y="166" width="242" height="194" as="geometry" />
        </mxCell>
        <mxCell id="leShlDSDKemooVHnEtB3-7" value="File Service Calls Metadata Storage:&lt;br&gt;&lt;ul&gt;&lt;li&gt;The metadata about the object is stored separately from the files themselves.&lt;/li&gt;&lt;li&gt;Objects contain the following metadata:&lt;/li&gt;&lt;ul&gt;&lt;li&gt;Object GUIDE ID&lt;/li&gt;&lt;li&gt;Catalog ID (GUIDE ID)&lt;/li&gt;&lt;li&gt;Title&lt;/li&gt;&lt;li&gt;Author&lt;/li&gt;&lt;li&gt;Classification&lt;/li&gt;&lt;li&gt;Text&lt;/li&gt;&lt;li&gt;Originating Source System ID&lt;/li&gt;&lt;li&gt;TBD&lt;/li&gt;&lt;/ul&gt;&lt;li&gt;POST, GET, PUT, DELETE Metadata&lt;/li&gt;&lt;ul&gt;&lt;li&gt;Update P&amp;amp;L&lt;/li&gt;&lt;/ul&gt;&lt;/ul&gt;" style="text;html=1;strokeColor=none;fillColor=none;align=left;verticalAlign=middle;whiteSpace=wrap;rounded=0;" parent="rdWnOtAYXpx5rYpskT7k-1" vertex="1">
          <mxGeometry x="586" y="-30" width="210" height="20" as="geometry" />
        </mxCell>
        <mxCell id="leShlDSDKemooVHnEtB3-8" value="Eva 2.0 File Service" style="text;html=1;strokeColor=none;fillColor=none;align=center;verticalAlign=middle;whiteSpace=wrap;rounded=0;fontSize=40;fontStyle=1" parent="rdWnOtAYXpx5rYpskT7k-1" vertex="1">
          <mxGeometry x="-174" y="-186" width="492" height="20" as="geometry" />
        </mxCell>
      </root>
    </mxGraphModel>
  </diagram>
  <diagram id="yGV3klNAmes6vnXIU-6Z" name="Search">
    <mxGraphModel dx="930" dy="752" grid="1" gridSize="10" guides="1" tooltips="1" connect="1" arrows="1" fold="1" page="1" pageScale="1" pageWidth="1100" pageHeight="850" math="0" shadow="0">
      <root>
        <mxCell id="IhRmrxAhBKWpf7RKfwG2-0" />
        <mxCell id="IhRmrxAhBKWpf7RKfwG2-1" parent="IhRmrxAhBKWpf7RKfwG2-0" />
        <mxCell id="IhRmrxAhBKWpf7RKfwG2-2" value="" style="rounded=1;whiteSpace=wrap;html=1;fillColor=none;dashed=1;" vertex="1" parent="IhRmrxAhBKWpf7RKfwG2-1">
          <mxGeometry x="25" y="80" width="770" height="460" as="geometry" />
        </mxCell>
        <mxCell id="IhRmrxAhBKWpf7RKfwG2-3" value="EVA API Gateway" style="rounded=0;whiteSpace=wrap;html=1;fillColor=#cce5ff;strokeColor=#36393d;" vertex="1" parent="IhRmrxAhBKWpf7RKfwG2-1">
          <mxGeometry x="260" y="240" width="90" height="40" as="geometry" />
        </mxCell>
        <mxCell id="IhRmrxAhBKWpf7RKfwG2-4" value="File Service" style="rounded=0;whiteSpace=wrap;html=1;fillColor=#ffff88;strokeColor=#36393d;" vertex="1" parent="IhRmrxAhBKWpf7RKfwG2-1">
          <mxGeometry x="450" y="240" width="90" height="40" as="geometry" />
        </mxCell>
        <mxCell id="IhRmrxAhBKWpf7RKfwG2-5" value="Indexing Service" style="rounded=0;whiteSpace=wrap;html=1;fillColor=#cce5ff;strokeColor=#36393d;" vertex="1" parent="IhRmrxAhBKWpf7RKfwG2-1">
          <mxGeometry x="280" y="565" width="90" height="40" as="geometry" />
        </mxCell>
        <mxCell id="IhRmrxAhBKWpf7RKfwG2-6" value="Enterprise Authentication" style="rounded=0;whiteSpace=wrap;html=1;fillColor=#cce5ff;strokeColor=#36393d;" vertex="1" parent="IhRmrxAhBKWpf7RKfwG2-1">
          <mxGeometry x="170" y="565" width="90" height="40" as="geometry" />
        </mxCell>
        <mxCell id="IhRmrxAhBKWpf7RKfwG2-7" value="UI" style="rounded=0;whiteSpace=wrap;html=1;fillColor=#cce5ff;strokeColor=#36393d;" vertex="1" parent="IhRmrxAhBKWpf7RKfwG2-1">
          <mxGeometry x="95" y="390" width="90" height="40" as="geometry" />
        </mxCell>
        <mxCell id="IhRmrxAhBKWpf7RKfwG2-8" value="Catalog Service" style="rounded=0;whiteSpace=wrap;html=1;fillColor=#ffff88;strokeColor=#36393d;" vertex="1" parent="IhRmrxAhBKWpf7RKfwG2-1">
          <mxGeometry x="450" y="400" width="90" height="40" as="geometry" />
        </mxCell>
        <mxCell id="IhRmrxAhBKWpf7RKfwG2-9" value="Metadata&lt;br&gt;Store" style="shape=cylinder3;whiteSpace=wrap;html=1;boundedLbl=1;backgroundOutline=1;size=15;fillColor=#cce5ff;strokeColor=#36393d;" vertex="1" parent="IhRmrxAhBKWpf7RKfwG2-1">
          <mxGeometry x="670" y="220" width="60" height="80" as="geometry" />
        </mxCell>
        <mxCell id="IhRmrxAhBKWpf7RKfwG2-10" value="Object Store (S3)" style="shape=cylinder3;whiteSpace=wrap;html=1;boundedLbl=1;backgroundOutline=1;size=15;fillColor=#ffff88;strokeColor=#36393d;" vertex="1" parent="IhRmrxAhBKWpf7RKfwG2-1">
          <mxGeometry x="670" y="300" width="60" height="80" as="geometry" />
        </mxCell>
        <mxCell id="IhRmrxAhBKWpf7RKfwG2-11" value="Catalog Store" style="shape=cylinder3;whiteSpace=wrap;html=1;boundedLbl=1;backgroundOutline=1;size=15;fillColor=#ffff88;strokeColor=#36393d;" vertex="1" parent="IhRmrxAhBKWpf7RKfwG2-1">
          <mxGeometry x="670" y="380" width="60" height="80" as="geometry" />
        </mxCell>
        <mxCell id="IhRmrxAhBKWpf7RKfwG2-12" value="Customer Catalog Store" style="shape=cylinder3;whiteSpace=wrap;html=1;boundedLbl=1;backgroundOutline=1;size=8;fillColor=#cce5ff;strokeColor=#36393d;" vertex="1" parent="IhRmrxAhBKWpf7RKfwG2-1">
          <mxGeometry x="670" y="580" width="60" height="80" as="geometry" />
        </mxCell>
        <mxCell id="IhRmrxAhBKWpf7RKfwG2-13" value="" style="edgeStyle=segmentEdgeStyle;endArrow=classic;html=1;exitX=0;exitY=0.5;exitDx=0;exitDy=0;entryX=0.5;entryY=0;entryDx=0;entryDy=0;" edge="1" parent="IhRmrxAhBKWpf7RKfwG2-1" source="IhRmrxAhBKWpf7RKfwG2-3" target="IhRmrxAhBKWpf7RKfwG2-7">
          <mxGeometry width="50" height="50" relative="1" as="geometry">
            <mxPoint x="150" y="265" as="sourcePoint" />
            <mxPoint x="200" y="215" as="targetPoint" />
          </mxGeometry>
        </mxCell>
        <mxCell id="IhRmrxAhBKWpf7RKfwG2-14" value="" style="edgeStyle=orthogonalEdgeStyle;elbow=horizontal;endArrow=classic;html=1;exitX=0.5;exitY=1;exitDx=0;exitDy=0;entryX=0.5;entryY=0;entryDx=0;entryDy=0;" edge="1" parent="IhRmrxAhBKWpf7RKfwG2-1" source="IhRmrxAhBKWpf7RKfwG2-3" target="IhRmrxAhBKWpf7RKfwG2-6">
          <mxGeometry width="50" height="50" relative="1" as="geometry">
            <mxPoint x="390" y="400" as="sourcePoint" />
            <mxPoint x="440" y="350" as="targetPoint" />
          </mxGeometry>
        </mxCell>
        <mxCell id="IhRmrxAhBKWpf7RKfwG2-15" value="" style="endArrow=classic;html=1;exitX=0.75;exitY=1;exitDx=0;exitDy=0;entryX=0.5;entryY=0;entryDx=0;entryDy=0;" edge="1" parent="IhRmrxAhBKWpf7RKfwG2-1" source="IhRmrxAhBKWpf7RKfwG2-3" target="IhRmrxAhBKWpf7RKfwG2-5">
          <mxGeometry width="50" height="50" relative="1" as="geometry">
            <mxPoint x="390" y="400" as="sourcePoint" />
            <mxPoint x="440" y="350" as="targetPoint" />
          </mxGeometry>
        </mxCell>
        <mxCell id="IhRmrxAhBKWpf7RKfwG2-16" value="" style="endArrow=classic;html=1;exitX=1;exitY=0.5;exitDx=0;exitDy=0;entryX=0;entryY=0.5;entryDx=0;entryDy=0;" edge="1" parent="IhRmrxAhBKWpf7RKfwG2-1" source="IhRmrxAhBKWpf7RKfwG2-3" target="IhRmrxAhBKWpf7RKfwG2-4">
          <mxGeometry width="50" height="50" relative="1" as="geometry">
            <mxPoint x="390" y="400" as="sourcePoint" />
            <mxPoint x="440" y="350" as="targetPoint" />
          </mxGeometry>
        </mxCell>
        <mxCell id="IhRmrxAhBKWpf7RKfwG2-17" value="" style="endArrow=classic;html=1;exitX=1;exitY=0.5;exitDx=0;exitDy=0;entryX=0;entryY=0.5;entryDx=0;entryDy=0;entryPerimeter=0;" edge="1" parent="IhRmrxAhBKWpf7RKfwG2-1" source="IhRmrxAhBKWpf7RKfwG2-4" target="IhRmrxAhBKWpf7RKfwG2-9">
          <mxGeometry width="50" height="50" relative="1" as="geometry">
            <mxPoint x="390" y="400" as="sourcePoint" />
            <mxPoint x="440" y="350" as="targetPoint" />
          </mxGeometry>
        </mxCell>
        <mxCell id="IhRmrxAhBKWpf7RKfwG2-18" value="" style="edgeStyle=elbowEdgeStyle;elbow=horizontal;endArrow=classic;html=1;exitX=1;exitY=0.75;exitDx=0;exitDy=0;entryX=0;entryY=0.5;entryDx=0;entryDy=0;entryPerimeter=0;" edge="1" parent="IhRmrxAhBKWpf7RKfwG2-1" source="IhRmrxAhBKWpf7RKfwG2-4" target="IhRmrxAhBKWpf7RKfwG2-10">
          <mxGeometry width="50" height="50" relative="1" as="geometry">
            <mxPoint x="390" y="400" as="sourcePoint" />
            <mxPoint x="440" y="350" as="targetPoint" />
          </mxGeometry>
        </mxCell>
        <mxCell id="IhRmrxAhBKWpf7RKfwG2-19" value="" style="edgeStyle=elbowEdgeStyle;elbow=horizontal;endArrow=classic;html=1;exitX=1;exitY=0.75;exitDx=0;exitDy=0;entryX=0;entryY=0.5;entryDx=0;entryDy=0;" edge="1" parent="IhRmrxAhBKWpf7RKfwG2-1" source="IhRmrxAhBKWpf7RKfwG2-3" target="IhRmrxAhBKWpf7RKfwG2-8">
          <mxGeometry width="50" height="50" relative="1" as="geometry">
            <mxPoint x="390" y="400" as="sourcePoint" />
            <mxPoint x="440" y="350" as="targetPoint" />
          </mxGeometry>
        </mxCell>
        <mxCell id="IhRmrxAhBKWpf7RKfwG2-20" value="" style="endArrow=classic;html=1;exitX=1;exitY=0.5;exitDx=0;exitDy=0;entryX=0;entryY=0.5;entryDx=0;entryDy=0;entryPerimeter=0;" edge="1" parent="IhRmrxAhBKWpf7RKfwG2-1" source="IhRmrxAhBKWpf7RKfwG2-8" target="IhRmrxAhBKWpf7RKfwG2-11">
          <mxGeometry width="50" height="50" relative="1" as="geometry">
            <mxPoint x="390" y="400" as="sourcePoint" />
            <mxPoint x="440" y="350" as="targetPoint" />
          </mxGeometry>
        </mxCell>
        <mxCell id="IhRmrxAhBKWpf7RKfwG2-21" value="Customer Catalog Service" style="rounded=0;whiteSpace=wrap;html=1;fillColor=#cce5ff;strokeColor=#36393d;" vertex="1" parent="IhRmrxAhBKWpf7RKfwG2-1">
          <mxGeometry x="450" y="595" width="90" height="50" as="geometry" />
        </mxCell>
        <mxCell id="IhRmrxAhBKWpf7RKfwG2-22" value="" style="endArrow=classic;html=1;exitX=1;exitY=0.5;exitDx=0;exitDy=0;entryX=0;entryY=0.5;entryDx=0;entryDy=0;entryPerimeter=0;" edge="1" parent="IhRmrxAhBKWpf7RKfwG2-1" source="IhRmrxAhBKWpf7RKfwG2-21" target="IhRmrxAhBKWpf7RKfwG2-12">
          <mxGeometry width="50" height="50" relative="1" as="geometry">
            <mxPoint x="390" y="390" as="sourcePoint" />
            <mxPoint x="440" y="340" as="targetPoint" />
          </mxGeometry>
        </mxCell>
        <mxCell id="IhRmrxAhBKWpf7RKfwG2-23" value="&lt;font style=&quot;font-size: 50px&quot;&gt;...&lt;/font&gt;" style="text;html=1;strokeColor=none;fillColor=none;align=center;verticalAlign=middle;whiteSpace=wrap;rounded=0;dashed=1;" vertex="1" parent="IhRmrxAhBKWpf7RKfwG2-1">
          <mxGeometry x="360" y="120" width="90" height="60" as="geometry" />
        </mxCell>
        <mxCell id="IhRmrxAhBKWpf7RKfwG2-24" value="&lt;b&gt;&lt;font style=&quot;font-size: 18px&quot;&gt;part of EVA 2.0&lt;/font&gt;&lt;/b&gt;" style="text;html=1;strokeColor=none;fillColor=none;align=center;verticalAlign=middle;whiteSpace=wrap;rounded=0;dashed=1;" vertex="1" parent="IhRmrxAhBKWpf7RKfwG2-1">
          <mxGeometry x="70" y="95" width="140" height="50" as="geometry" />
        </mxCell>
        <mxCell id="IhRmrxAhBKWpf7RKfwG2-25" value="" style="endArrow=classic;html=1;exitX=0.5;exitY=1;exitDx=0;exitDy=0;entryX=0.5;entryY=0;entryDx=0;entryDy=0;" edge="1" parent="IhRmrxAhBKWpf7RKfwG2-1" source="IhRmrxAhBKWpf7RKfwG2-8" target="IhRmrxAhBKWpf7RKfwG2-21">
          <mxGeometry width="50" height="50" relative="1" as="geometry">
            <mxPoint x="390" y="370" as="sourcePoint" />
            <mxPoint x="440" y="320" as="targetPoint" />
          </mxGeometry>
        </mxCell>
        <mxCell id="IhRmrxAhBKWpf7RKfwG2-26" value="&lt;h1&gt;&lt;span&gt;Search 2.0&lt;/span&gt;&lt;span style=&quot;font-size: 12px ; font-weight: 400&quot;&gt;&lt;br&gt;&lt;ul&gt;&lt;li&gt;&lt;span style=&quot;font-size: 12px ; font-weight: 400&quot;&gt;Users can search against the Catalog&lt;br&gt;- Works with Customer Catalog service to retrieve catalog data from outside of our in-house stores (should this only be one connection from our catalog service?)&lt;/span&gt;&lt;/li&gt;&lt;li&gt;&lt;span style=&quot;font-size: 12px ; font-weight: 400&quot;&gt;Users can search against the Metadata store&lt;/span&gt;&lt;/li&gt;&lt;li&gt;&lt;span style=&quot;font-size: 12px ; font-weight: 400&quot;&gt;Users can search against the Indexing service&lt;/span&gt;&lt;/li&gt;&lt;li&gt;&lt;span style=&quot;font-size: 12px ; font-weight: 400&quot;&gt;Users can search against the Object store&lt;/span&gt;&lt;/li&gt;&lt;/ul&gt;&lt;/span&gt;&lt;/h1&gt;" style="text;html=1;strokeColor=none;fillColor=none;spacing=5;spacingTop=-20;whiteSpace=wrap;overflow=hidden;rounded=0;dashed=1;" vertex="1" parent="IhRmrxAhBKWpf7RKfwG2-1">
          <mxGeometry x="60" y="680" width="710" height="250" as="geometry" />
        </mxCell>
      </root>
    </mxGraphModel>
  </diagram>
  <diagram id="4QoJp3jgmHIejnU-5USD" name="Page-7">
    <mxGraphModel dx="2030" dy="3302" grid="1" gridSize="10" guides="1" tooltips="1" connect="1" arrows="1" fold="1" page="1" pageScale="1" pageWidth="1100" pageHeight="850" math="0" shadow="0">
      <root>
        <mxCell id="lCYI8e8vBh8HnRlEkmtJ-0" />
        <mxCell id="lCYI8e8vBh8HnRlEkmtJ-1" parent="lCYI8e8vBh8HnRlEkmtJ-0" />
        <mxCell id="lCYI8e8vBh8HnRlEkmtJ-2" value="EVA Dashboard" style="rounded=0;whiteSpace=wrap;html=1;fillColor=#dae8fc;strokeColor=#6c8ebf;gradientColor=#7ea6e0;" vertex="1" parent="lCYI8e8vBh8HnRlEkmtJ-1">
          <mxGeometry x="344" y="-1726" width="236" height="60" as="geometry" />
        </mxCell>
        <mxCell id="lCYI8e8vBh8HnRlEkmtJ-3" value="Datasets Page" style="rounded=0;whiteSpace=wrap;html=1;strokeColor=#82b366;gradientColor=#97d077;fillColor=#d5e8d4;" vertex="1" parent="lCYI8e8vBh8HnRlEkmtJ-1">
          <mxGeometry x="-212" y="-1492.5" width="120" height="60" as="geometry" />
        </mxCell>
        <mxCell id="lCYI8e8vBh8HnRlEkmtJ-4" value="Metrics Page" style="rounded=0;whiteSpace=wrap;html=1;fillColor=#ffcd28;strokeColor=#d79b00;gradientColor=#ffa500;" vertex="1" parent="lCYI8e8vBh8HnRlEkmtJ-1">
          <mxGeometry x="633" y="-1492.5" width="120" height="60" as="geometry" />
        </mxCell>
        <mxCell id="lCYI8e8vBh8HnRlEkmtJ-5" value="Search Page" style="rounded=0;whiteSpace=wrap;html=1;fillColor=#e6d0de;strokeColor=#996185;gradientColor=#d5739d;" vertex="1" parent="lCYI8e8vBh8HnRlEkmtJ-1">
          <mxGeometry x="893" y="-1492.5" width="120" height="60" as="geometry" />
        </mxCell>
        <mxCell id="lCYI8e8vBh8HnRlEkmtJ-6" value="Task View" style="rounded=0;whiteSpace=wrap;html=1;gradientColor=#b3b3b3;fillColor=#f5f5f5;strokeColor=#666666;" vertex="1" parent="lCYI8e8vBh8HnRlEkmtJ-1">
          <mxGeometry x="1462" y="-1501" width="120" height="60" as="geometry" />
        </mxCell>
        <mxCell id="lCYI8e8vBh8HnRlEkmtJ-7" value="Themes" style="rounded=0;whiteSpace=wrap;html=1;fillColor=#dae8fc;strokeColor=#6c8ebf;gradientColor=#7ea6e0;" vertex="1" parent="lCYI8e8vBh8HnRlEkmtJ-1">
          <mxGeometry x="651" y="-1791" width="89" height="43" as="geometry" />
        </mxCell>
        <mxCell id="lCYI8e8vBh8HnRlEkmtJ-8" value="Notifications" style="rounded=0;whiteSpace=wrap;html=1;fillColor=#dae8fc;strokeColor=#6c8ebf;gradientColor=#7ea6e0;" vertex="1" parent="lCYI8e8vBh8HnRlEkmtJ-1">
          <mxGeometry x="649" y="-1724" width="89" height="43" as="geometry" />
        </mxCell>
        <mxCell id="lCYI8e8vBh8HnRlEkmtJ-9" value="Feedback" style="rounded=0;whiteSpace=wrap;html=1;fillColor=#dae8fc;strokeColor=#6c8ebf;gradientColor=#7ea6e0;" vertex="1" parent="lCYI8e8vBh8HnRlEkmtJ-1">
          <mxGeometry x="651" y="-1657" width="89" height="43" as="geometry" />
        </mxCell>
        <mxCell id="lCYI8e8vBh8HnRlEkmtJ-10" value="List Results" style="rounded=1;whiteSpace=wrap;html=1;strokeColor=#82b366;fontSize=10;fillColor=#FFFFFF;" vertex="1" parent="lCYI8e8vBh8HnRlEkmtJ-1">
          <mxGeometry x="-376" y="-1304" width="100" height="43" as="geometry" />
        </mxCell>
        <mxCell id="lCYI8e8vBh8HnRlEkmtJ-11" value="Search Datasets" style="rounded=1;whiteSpace=wrap;html=1;strokeColor=#82b366;fontSize=10;fillColor=#FFFFFF;" vertex="1" parent="lCYI8e8vBh8HnRlEkmtJ-1">
          <mxGeometry x="-376" y="-1370" width="100" height="43" as="geometry" />
        </mxCell>
        <mxCell id="lCYI8e8vBh8HnRlEkmtJ-12" value="Update Datasets" style="rounded=1;whiteSpace=wrap;html=1;strokeColor=#82b366;fontSize=10;fillColor=#FFFFFF;" vertex="1" parent="lCYI8e8vBh8HnRlEkmtJ-1">
          <mxGeometry x="-246" y="-1370" width="100" height="43" as="geometry" />
        </mxCell>
        <mxCell id="lCYI8e8vBh8HnRlEkmtJ-13" value="Upload Objects to Dataset" style="rounded=1;whiteSpace=wrap;html=1;strokeColor=#82b366;fontSize=10;fillColor=#FFFFFF;" vertex="1" parent="lCYI8e8vBh8HnRlEkmtJ-1">
          <mxGeometry x="-246" y="-1306" width="100" height="43" as="geometry" />
        </mxCell>
        <mxCell id="lCYI8e8vBh8HnRlEkmtJ-14" value="Create New Datasets" style="rounded=1;whiteSpace=wrap;html=1;strokeColor=#82b366;fontSize=10;fillColor=#FFFFFF;" vertex="1" parent="lCYI8e8vBh8HnRlEkmtJ-1">
          <mxGeometry x="-123" y="-1370" width="100" height="43" as="geometry" />
        </mxCell>
        <mxCell id="lCYI8e8vBh8HnRlEkmtJ-15" value="Publish Objects to IDL" style="rounded=1;whiteSpace=wrap;html=1;strokeColor=#82b366;fontSize=10;fillColor=#FFFFFF;" vertex="1" parent="lCYI8e8vBh8HnRlEkmtJ-1">
          <mxGeometry x="-243" y="-1170" width="100" height="43" as="geometry" />
        </mxCell>
        <mxCell id="lCYI8e8vBh8HnRlEkmtJ-16" value="Delete Datasets" style="rounded=1;whiteSpace=wrap;html=1;strokeColor=#82b366;fontSize=10;fillColor=#FFFFFF;" vertex="1" parent="lCYI8e8vBh8HnRlEkmtJ-1">
          <mxGeometry x="3" y="-1370" width="100" height="43" as="geometry" />
        </mxCell>
        <mxCell id="lCYI8e8vBh8HnRlEkmtJ-17" value="Search Datasets" style="rounded=1;whiteSpace=wrap;html=1;strokeColor=#996185;fontSize=10;fillColor=#FFFFFF;" vertex="1" parent="lCYI8e8vBh8HnRlEkmtJ-1">
          <mxGeometry x="846" y="-1374" width="100" height="43" as="geometry" />
        </mxCell>
        <mxCell id="lCYI8e8vBh8HnRlEkmtJ-18" value="Search Objects" style="rounded=1;whiteSpace=wrap;html=1;strokeColor=#996185;fontSize=10;fillColor=#FFFFFF;" vertex="1" parent="lCYI8e8vBh8HnRlEkmtJ-1">
          <mxGeometry x="967" y="-1374" width="100" height="43" as="geometry" />
        </mxCell>
        <mxCell id="lCYI8e8vBh8HnRlEkmtJ-19" value="Dataset Search Results" style="rounded=1;whiteSpace=wrap;html=1;strokeColor=#996185;fontSize=10;fillColor=#FFFFFF;" vertex="1" parent="lCYI8e8vBh8HnRlEkmtJ-1">
          <mxGeometry x="846" y="-1306" width="100" height="43" as="geometry" />
        </mxCell>
        <mxCell id="lCYI8e8vBh8HnRlEkmtJ-20" value="Objects Search Results" style="rounded=1;whiteSpace=wrap;html=1;strokeColor=#996185;fontSize=10;fillColor=#FFFFFF;" vertex="1" parent="lCYI8e8vBh8HnRlEkmtJ-1">
          <mxGeometry x="967" y="-1309" width="100" height="43" as="geometry" />
        </mxCell>
        <mxCell id="lCYI8e8vBh8HnRlEkmtJ-21" value="Link to View Dataset" style="rounded=1;whiteSpace=wrap;html=1;strokeColor=#996185;fontSize=10;fillColor=#FFFFFF;" vertex="1" parent="lCYI8e8vBh8HnRlEkmtJ-1">
          <mxGeometry x="846" y="-1247" width="100" height="43" as="geometry" />
        </mxCell>
        <mxCell id="lCYI8e8vBh8HnRlEkmtJ-22" value="Link to View Object" style="rounded=1;whiteSpace=wrap;html=1;strokeColor=#996185;fontSize=10;fillColor=#FFFFFF;" vertex="1" parent="lCYI8e8vBh8HnRlEkmtJ-1">
          <mxGeometry x="971" y="-1247" width="100" height="43" as="geometry" />
        </mxCell>
        <mxCell id="lCYI8e8vBh8HnRlEkmtJ-23" value="Upload Objects to Dataset" style="rounded=1;whiteSpace=wrap;html=1;strokeColor=#82b366;fontSize=10;fillColor=#FFFFFF;" vertex="1" parent="lCYI8e8vBh8HnRlEkmtJ-1">
          <mxGeometry x="-121" y="-1306" width="100" height="43" as="geometry" />
        </mxCell>
        <mxCell id="lCYI8e8vBh8HnRlEkmtJ-24" value="Publish Objects to IDL" style="rounded=1;whiteSpace=wrap;html=1;strokeColor=#82b366;fontSize=10;fillColor=#FFFFFF;" vertex="1" parent="lCYI8e8vBh8HnRlEkmtJ-1">
          <mxGeometry x="-123" y="-1170" width="100" height="43" as="geometry" />
        </mxCell>
        <mxCell id="lCYI8e8vBh8HnRlEkmtJ-25" value="Add/Update Metadata to Objects" style="rounded=1;whiteSpace=wrap;html=1;strokeColor=#82b366;fontSize=10;fillColor=#FFFFFF;" vertex="1" parent="lCYI8e8vBh8HnRlEkmtJ-1">
          <mxGeometry x="-243" y="-1238" width="100" height="43" as="geometry" />
        </mxCell>
        <mxCell id="lCYI8e8vBh8HnRlEkmtJ-26" value="Add Metadata to Objects" style="rounded=1;whiteSpace=wrap;html=1;strokeColor=#82b366;fontSize=10;fillColor=#FFFFFF;" vertex="1" parent="lCYI8e8vBh8HnRlEkmtJ-1">
          <mxGeometry x="-123" y="-1238" width="100" height="43" as="geometry" />
        </mxCell>
        <mxCell id="lCYI8e8vBh8HnRlEkmtJ-27" value="Search Datasets" style="rounded=1;whiteSpace=wrap;html=1;strokeColor=#d79b00;fontSize=10;fillColor=#FFFFFF;" vertex="1" parent="lCYI8e8vBh8HnRlEkmtJ-1">
          <mxGeometry x="649" y="-1374" width="100" height="43" as="geometry" />
        </mxCell>
        <mxCell id="lCYI8e8vBh8HnRlEkmtJ-28" value="Adjust Date Ranges" style="rounded=1;whiteSpace=wrap;html=1;strokeColor=#d79b00;fontSize=10;fillColor=#FFFFFF;" vertex="1" parent="lCYI8e8vBh8HnRlEkmtJ-1">
          <mxGeometry x="649" y="-1305" width="100" height="43" as="geometry" />
        </mxCell>
        <mxCell id="lCYI8e8vBh8HnRlEkmtJ-29" value="Export to .PDF" style="rounded=1;whiteSpace=wrap;html=1;strokeColor=#d79b00;fontSize=10;fillColor=#FFFFFF;" vertex="1" parent="lCYI8e8vBh8HnRlEkmtJ-1">
          <mxGeometry x="649" y="-1244" width="100" height="43" as="geometry" />
        </mxCell>
        <mxCell id="lCYI8e8vBh8HnRlEkmtJ-30" value="Export to .CSV" style="rounded=1;whiteSpace=wrap;html=1;strokeColor=#d79b00;fontSize=10;fillColor=#FFFFFF;" vertex="1" parent="lCYI8e8vBh8HnRlEkmtJ-1">
          <mxGeometry x="651" y="-1173" width="100" height="43" as="geometry" />
        </mxCell>
        <mxCell id="lCYI8e8vBh8HnRlEkmtJ-31" value="Mail ??" style="rounded=1;whiteSpace=wrap;html=1;strokeColor=#d79b00;fontSize=10;fillColor=#FFFFFF;" vertex="1" parent="lCYI8e8vBh8HnRlEkmtJ-1">
          <mxGeometry x="653" y="-1102" width="100" height="43" as="geometry" />
        </mxCell>
        <mxCell id="lCYI8e8vBh8HnRlEkmtJ-32" value="&#39;Manual&#39; Eva" style="rounded=1;whiteSpace=wrap;html=1;strokeColor=#b85450;fontSize=10;fillColor=#FFFFFF;" vertex="1" parent="lCYI8e8vBh8HnRlEkmtJ-1">
          <mxGeometry x="282" y="-1303" width="100" height="43" as="geometry" />
        </mxCell>
        <mxCell id="lCYI8e8vBh8HnRlEkmtJ-33" value="Bulk Upload" style="rounded=1;whiteSpace=wrap;html=1;strokeColor=#b85450;fontSize=10;fillColor=#FFFFFF;" vertex="1" parent="lCYI8e8vBh8HnRlEkmtJ-1">
          <mxGeometry x="281" y="-1083.5" width="100" height="43" as="geometry" />
        </mxCell>
        <mxCell id="lCYI8e8vBh8HnRlEkmtJ-34" value="Publish to IDL" style="rounded=1;whiteSpace=wrap;html=1;strokeColor=#b85450;fontSize=10;fillColor=#FFFFFF;" vertex="1" parent="lCYI8e8vBh8HnRlEkmtJ-1">
          <mxGeometry x="281" y="-1010.5" width="100" height="43" as="geometry" />
        </mxCell>
        <mxCell id="lCYI8e8vBh8HnRlEkmtJ-35" value="Reprocess Page" style="rounded=1;whiteSpace=wrap;html=1;strokeColor=#b85450;fontSize=10;fillColor=#FFFFFF;" vertex="1" parent="lCYI8e8vBh8HnRlEkmtJ-1">
          <mxGeometry x="281" y="-867.5" width="100" height="43" as="geometry" />
        </mxCell>
        <mxCell id="lCYI8e8vBh8HnRlEkmtJ-36" value="Read Datasets" style="rounded=1;whiteSpace=wrap;html=1;strokeColor=#82b366;fontSize=10;fillColor=#FFFFFF;" vertex="1" parent="lCYI8e8vBh8HnRlEkmtJ-1">
          <mxGeometry x="-376" y="-1238" width="100" height="43" as="geometry" />
        </mxCell>
        <mxCell id="lCYI8e8vBh8HnRlEkmtJ-37" value="Digitization Page" style="rounded=0;whiteSpace=wrap;html=1;strokeColor=#b85450;gradientColor=#ea6b66;fillColor=#f8cecc;" vertex="1" parent="lCYI8e8vBh8HnRlEkmtJ-1">
          <mxGeometry x="271" y="-1489" width="120" height="60" as="geometry" />
        </mxCell>
        <mxCell id="lCYI8e8vBh8HnRlEkmtJ-38" value="View Status" style="rounded=1;whiteSpace=wrap;html=1;strokeColor=#b85450;fontSize=10;fillColor=#FFFFFF;" vertex="1" parent="lCYI8e8vBh8HnRlEkmtJ-1">
          <mxGeometry x="281" y="-939" width="100" height="43" as="geometry" />
        </mxCell>
        <mxCell id="lCYI8e8vBh8HnRlEkmtJ-39" value="Eva&#39;s Holding Pen" style="rounded=1;whiteSpace=wrap;html=1;strokeColor=#b85450;fontSize=10;fillColor=#FFFFFF;" vertex="1" parent="lCYI8e8vBh8HnRlEkmtJ-1">
          <mxGeometry x="137" y="-1303" width="100" height="43" as="geometry" />
        </mxCell>
        <mxCell id="lCYI8e8vBh8HnRlEkmtJ-40" value="Edit Metadata" style="rounded=1;whiteSpace=wrap;html=1;strokeColor=#b85450;fontSize=10;fillColor=#FFFFFF;" vertex="1" parent="lCYI8e8vBh8HnRlEkmtJ-1">
          <mxGeometry x="281" y="-792.5" width="100" height="43" as="geometry" />
        </mxCell>
        <mxCell id="lCYI8e8vBh8HnRlEkmtJ-41" value="Reprocess Failed Objects" style="rounded=1;whiteSpace=wrap;html=1;strokeColor=#b85450;fontSize=10;fillColor=#FFFFFF;" vertex="1" parent="lCYI8e8vBh8HnRlEkmtJ-1">
          <mxGeometry x="283" y="-722.5" width="100" height="43" as="geometry" />
        </mxCell>
        <mxCell id="lCYI8e8vBh8HnRlEkmtJ-42" value="My Assigned Tasks" style="rounded=1;whiteSpace=wrap;html=1;strokeColor=#666666;fontSize=10;gradientColor=#b3b3b3;fillColor=none;" vertex="1" parent="lCYI8e8vBh8HnRlEkmtJ-1">
          <mxGeometry x="1263" y="-1382.5" width="100" height="43" as="geometry" />
        </mxCell>
        <mxCell id="lCYI8e8vBh8HnRlEkmtJ-43" value="My Group&#39;s Assigned Tasks" style="rounded=1;whiteSpace=wrap;html=1;strokeColor=#666666;fontSize=10;gradientColor=#b3b3b3;fillColor=none;" vertex="1" parent="lCYI8e8vBh8HnRlEkmtJ-1">
          <mxGeometry x="1650" y="-1382.5" width="100" height="43" as="geometry" />
        </mxCell>
        <mxCell id="lCYI8e8vBh8HnRlEkmtJ-44" value="Disposition" style="rounded=1;whiteSpace=wrap;html=1;strokeColor=#666666;fontSize=10;gradientColor=#b3b3b3;fillColor=none;" vertex="1" parent="lCYI8e8vBh8HnRlEkmtJ-1">
          <mxGeometry x="1376" y="-1312" width="100" height="43" as="geometry" />
        </mxCell>
        <mxCell id="lCYI8e8vBh8HnRlEkmtJ-45" value="Datasets" style="rounded=1;whiteSpace=wrap;html=1;strokeColor=#666666;fontSize=10;gradientColor=#b3b3b3;fillColor=none;" vertex="1" parent="lCYI8e8vBh8HnRlEkmtJ-1">
          <mxGeometry x="1263" y="-1312.5" width="100" height="43" as="geometry" />
        </mxCell>
        <mxCell id="lCYI8e8vBh8HnRlEkmtJ-46" value="IMA Process" style="rounded=1;whiteSpace=wrap;html=1;strokeColor=#666666;fontSize=10;gradientColor=#b3b3b3;fillColor=none;" vertex="1" parent="lCYI8e8vBh8HnRlEkmtJ-1">
          <mxGeometry x="1150" y="-1312" width="100" height="43" as="geometry" />
        </mxCell>
        <mxCell id="lCYI8e8vBh8HnRlEkmtJ-47" value="Disposition" style="rounded=1;whiteSpace=wrap;html=1;strokeColor=#666666;fontSize=10;gradientColor=#b3b3b3;fillColor=none;" vertex="1" parent="lCYI8e8vBh8HnRlEkmtJ-1">
          <mxGeometry x="1754" y="-1311.5" width="100" height="43" as="geometry" />
        </mxCell>
        <mxCell id="lCYI8e8vBh8HnRlEkmtJ-48" value="Datasets" style="rounded=1;whiteSpace=wrap;html=1;strokeColor=#666666;fontSize=10;gradientColor=#b3b3b3;fillColor=none;" vertex="1" parent="lCYI8e8vBh8HnRlEkmtJ-1">
          <mxGeometry x="1641" y="-1312" width="100" height="43" as="geometry" />
        </mxCell>
        <mxCell id="lCYI8e8vBh8HnRlEkmtJ-49" value="IMA Process" style="rounded=1;whiteSpace=wrap;html=1;strokeColor=#666666;fontSize=10;gradientColor=#b3b3b3;fillColor=none;" vertex="1" parent="lCYI8e8vBh8HnRlEkmtJ-1">
          <mxGeometry x="1528" y="-1311.5" width="100" height="43" as="geometry" />
        </mxCell>
        <mxCell id="lCYI8e8vBh8HnRlEkmtJ-50" value="Initial System Review" style="rounded=1;whiteSpace=wrap;html=1;strokeColor=#666666;fontSize=10;gradientColor=#b3b3b3;fillColor=none;" vertex="1" parent="lCYI8e8vBh8HnRlEkmtJ-1">
          <mxGeometry x="1150" y="-1238.5" width="100" height="43" as="geometry" />
        </mxCell>
        <mxCell id="lCYI8e8vBh8HnRlEkmtJ-51" value="Determine Records Compliance&amp;nbsp;" style="rounded=1;whiteSpace=wrap;html=1;strokeColor=#666666;fontSize=10;gradientColor=#b3b3b3;fillColor=none;" vertex="1" parent="lCYI8e8vBh8HnRlEkmtJ-1">
          <mxGeometry x="1150" y="-1043.5" width="100" height="43" as="geometry" />
        </mxCell>
        <mxCell id="lCYI8e8vBh8HnRlEkmtJ-52" value="Coordinate with System POCs on Compliance Responses" style="rounded=1;whiteSpace=wrap;html=1;strokeColor=#666666;fontSize=10;gradientColor=#b3b3b3;fillColor=none;" vertex="1" parent="lCYI8e8vBh8HnRlEkmtJ-1">
          <mxGeometry x="1150" y="-1170.5" width="100" height="48" as="geometry" />
        </mxCell>
        <mxCell id="lCYI8e8vBh8HnRlEkmtJ-53" value="Submit for Approval" style="rounded=1;whiteSpace=wrap;html=1;strokeColor=#666666;fontSize=10;gradientColor=#b3b3b3;fillColor=none;" vertex="1" parent="lCYI8e8vBh8HnRlEkmtJ-1">
          <mxGeometry x="1150" y="-980.5" width="100" height="43" as="geometry" />
        </mxCell>
        <mxCell id="lCYI8e8vBh8HnRlEkmtJ-54" value="Provide Compliance Responses" style="rounded=1;whiteSpace=wrap;html=1;strokeColor=#666666;fontSize=10;gradientColor=#b3b3b3;fillColor=none;" vertex="1" parent="lCYI8e8vBh8HnRlEkmtJ-1">
          <mxGeometry x="1150" y="-1101.5" width="100" height="43" as="geometry" />
        </mxCell>
        <mxCell id="lCYI8e8vBh8HnRlEkmtJ-55" value="Initiate RMM Integration" style="rounded=1;whiteSpace=wrap;html=1;strokeColor=#666666;fontSize=10;gradientColor=#b3b3b3;fillColor=none;" vertex="1" parent="lCYI8e8vBh8HnRlEkmtJ-1">
          <mxGeometry x="1147" y="-741.5" width="100" height="43" as="geometry" />
        </mxCell>
        <mxCell id="lCYI8e8vBh8HnRlEkmtJ-56" value="Make Final Records Compliance Determination" style="rounded=1;whiteSpace=wrap;html=1;strokeColor=#666666;fontSize=10;gradientColor=#b3b3b3;fillColor=none;" vertex="1" parent="lCYI8e8vBh8HnRlEkmtJ-1">
          <mxGeometry x="1150" y="-918.5" width="100" height="43" as="geometry" />
        </mxCell>
        <mxCell id="lCYI8e8vBh8HnRlEkmtJ-57" value="Export to .PDF or .CSV" style="rounded=1;whiteSpace=wrap;html=1;strokeColor=#666666;fontSize=10;gradientColor=#b3b3b3;fillColor=none;" vertex="1" parent="lCYI8e8vBh8HnRlEkmtJ-1">
          <mxGeometry x="1147" y="-853.5" width="100" height="43" as="geometry" />
        </mxCell>
        <mxCell id="lCYI8e8vBh8HnRlEkmtJ-58" value="Import into A&amp;amp;A Tool" style="rounded=1;whiteSpace=wrap;html=1;strokeColor=#666666;fontSize=10;gradientColor=#b3b3b3;fillColor=none;" vertex="1" parent="lCYI8e8vBh8HnRlEkmtJ-1">
          <mxGeometry x="1147" y="-797.5" width="100" height="43" as="geometry" />
        </mxCell>
        <mxCell id="lCYI8e8vBh8HnRlEkmtJ-59" value="Choose Processing Option" style="rounded=1;whiteSpace=wrap;html=1;strokeColor=#b85450;fontSize=10;fillColor=#FFFFFF;" vertex="1" parent="lCYI8e8vBh8HnRlEkmtJ-1">
          <mxGeometry x="281" y="-1374" width="100" height="43" as="geometry" />
        </mxCell>
        <mxCell id="lCYI8e8vBh8HnRlEkmtJ-60" value="&#39;Auto&#39; Eva" style="rounded=1;whiteSpace=wrap;html=1;strokeColor=#b85450;fontSize=10;fillColor=#FFFFFF;" vertex="1" parent="lCYI8e8vBh8HnRlEkmtJ-1">
          <mxGeometry x="421" y="-1304" width="100" height="43" as="geometry" />
        </mxCell>
        <mxCell id="lCYI8e8vBh8HnRlEkmtJ-61" value="Select Dataset" style="rounded=1;whiteSpace=wrap;html=1;strokeColor=#b85450;fontSize=10;fillColor=#FFFFFF;" vertex="1" parent="lCYI8e8vBh8HnRlEkmtJ-1">
          <mxGeometry x="281" y="-1230" width="100" height="43" as="geometry" />
        </mxCell>
        <mxCell id="lCYI8e8vBh8HnRlEkmtJ-62" value="Bulk Upload" style="rounded=1;whiteSpace=wrap;html=1;strokeColor=#b85450;fontSize=10;fillColor=#FFFFFF;" vertex="1" parent="lCYI8e8vBh8HnRlEkmtJ-1">
          <mxGeometry x="417" y="-1156.5" width="100" height="43" as="geometry" />
        </mxCell>
        <mxCell id="lCYI8e8vBh8HnRlEkmtJ-63" value="Publish to IDL" style="rounded=1;whiteSpace=wrap;html=1;strokeColor=#b85450;fontSize=10;fillColor=#FFFFFF;" vertex="1" parent="lCYI8e8vBh8HnRlEkmtJ-1">
          <mxGeometry x="417" y="-1083.5" width="100" height="43" as="geometry" />
        </mxCell>
        <mxCell id="lCYI8e8vBh8HnRlEkmtJ-64" value="Reprocess Page" style="rounded=1;whiteSpace=wrap;html=1;strokeColor=#b85450;fontSize=10;fillColor=#FFFFFF;" vertex="1" parent="lCYI8e8vBh8HnRlEkmtJ-1">
          <mxGeometry x="417" y="-940.5" width="100" height="43" as="geometry" />
        </mxCell>
        <mxCell id="lCYI8e8vBh8HnRlEkmtJ-65" value="View Status" style="rounded=1;whiteSpace=wrap;html=1;strokeColor=#b85450;fontSize=10;fillColor=#FFFFFF;" vertex="1" parent="lCYI8e8vBh8HnRlEkmtJ-1">
          <mxGeometry x="417" y="-1012" width="100" height="43" as="geometry" />
        </mxCell>
        <mxCell id="lCYI8e8vBh8HnRlEkmtJ-66" value="Edit Metadata" style="rounded=1;whiteSpace=wrap;html=1;strokeColor=#b85450;fontSize=10;fillColor=#FFFFFF;" vertex="1" parent="lCYI8e8vBh8HnRlEkmtJ-1">
          <mxGeometry x="417" y="-865.5" width="100" height="43" as="geometry" />
        </mxCell>
        <mxCell id="lCYI8e8vBh8HnRlEkmtJ-67" value="Reprocess Failed Objects" style="rounded=1;whiteSpace=wrap;html=1;strokeColor=#b85450;fontSize=10;fillColor=#FFFFFF;" vertex="1" parent="lCYI8e8vBh8HnRlEkmtJ-1">
          <mxGeometry x="419" y="-795.5" width="100" height="43" as="geometry" />
        </mxCell>
        <mxCell id="lCYI8e8vBh8HnRlEkmtJ-68" value="View Systems by Assignee" style="rounded=1;whiteSpace=wrap;html=1;strokeColor=#666666;fontSize=10;gradientColor=#b3b3b3;fillColor=none;" vertex="1" parent="lCYI8e8vBh8HnRlEkmtJ-1">
          <mxGeometry x="1528" y="-1240" width="100" height="43" as="geometry" />
        </mxCell>
        <mxCell id="lCYI8e8vBh8HnRlEkmtJ-69" value="View Datasets by Assignee" style="rounded=1;whiteSpace=wrap;html=1;strokeColor=#666666;fontSize=10;gradientColor=#b3b3b3;fillColor=none;" vertex="1" parent="lCYI8e8vBh8HnRlEkmtJ-1">
          <mxGeometry x="1648" y="-1240" width="100" height="43" as="geometry" />
        </mxCell>
        <mxCell id="lCYI8e8vBh8HnRlEkmtJ-70" value="View Dispositions by Assignee" style="rounded=1;whiteSpace=wrap;html=1;strokeColor=#666666;fontSize=10;gradientColor=#b3b3b3;fillColor=none;" vertex="1" parent="lCYI8e8vBh8HnRlEkmtJ-1">
          <mxGeometry x="1757" y="-1238.5" width="100" height="43" as="geometry" />
        </mxCell>
        <mxCell id="lCYI8e8vBh8HnRlEkmtJ-71" value="Certify Upload" style="rounded=1;whiteSpace=wrap;html=1;strokeColor=#b85450;fontSize=10;fillColor=#FFFFFF;" vertex="1" parent="lCYI8e8vBh8HnRlEkmtJ-1">
          <mxGeometry x="137" y="-1230" width="100" height="43" as="geometry" />
        </mxCell>
        <mxCell id="lCYI8e8vBh8HnRlEkmtJ-72" value="Certify Upload" style="rounded=1;whiteSpace=wrap;html=1;strokeColor=#b85450;fontSize=10;fillColor=#FFFFFF;" vertex="1" parent="lCYI8e8vBh8HnRlEkmtJ-1">
          <mxGeometry x="283" y="-1161" width="100" height="43" as="geometry" />
        </mxCell>
        <mxCell id="lCYI8e8vBh8HnRlEkmtJ-73" value="Certify Upload" style="rounded=1;whiteSpace=wrap;html=1;strokeColor=#b85450;fontSize=10;fillColor=#FFFFFF;" vertex="1" parent="lCYI8e8vBh8HnRlEkmtJ-1">
          <mxGeometry x="417" y="-1230" width="100" height="43" as="geometry" />
        </mxCell>
        <mxCell id="lCYI8e8vBh8HnRlEkmtJ-74" value="Bulk Upload to S3" style="rounded=1;whiteSpace=wrap;html=1;strokeColor=#b85450;fontSize=10;fillColor=#FFFFFF;" vertex="1" parent="lCYI8e8vBh8HnRlEkmtJ-1">
          <mxGeometry x="140" y="-1163" width="100" height="43" as="geometry" />
        </mxCell>
        <mxCell id="lCYI8e8vBh8HnRlEkmtJ-75" value="what&#39;s an actual page vs. feature" style="text;html=1;strokeColor=none;fillColor=none;align=center;verticalAlign=middle;whiteSpace=wrap;rounded=0;fontSize=16;" vertex="1" parent="lCYI8e8vBh8HnRlEkmtJ-1">
          <mxGeometry x="-329" y="-916" width="301" height="44" as="geometry" />
        </mxCell>
      </root>
    </mxGraphModel>
  </diagram>
  <diagram id="elw99k3kC3_1Q8jx1iOW" name="Eva 2.0 High Level - OLD">
    <mxGraphModel dx="2441" dy="1482" grid="0" gridSize="10" guides="1" tooltips="1" connect="0" arrows="0" fold="1" page="0" pageScale="1" pageWidth="1400" pageHeight="1700" math="0" shadow="0">
      <root>
        <mxCell id="8GRn8cEL_pyLPgJIwxRR-0" />
        <mxCell id="8GRn8cEL_pyLPgJIwxRR-1" parent="8GRn8cEL_pyLPgJIwxRR-0" />
        <mxCell id="_qIGpLVhdSEVO8uDuWI8-0" value="" style="rounded=1;whiteSpace=wrap;html=1;fontFamily=Helvetica;fontSize=12;fontColor=#0000FF;strokeColor=#B3B3B3;dashed=1;strokeWidth=3;" parent="8GRn8cEL_pyLPgJIwxRR-1" vertex="1">
          <mxGeometry x="27" y="403" width="1331" height="696" as="geometry" />
        </mxCell>
        <mxCell id="SsO4Lzo8B7FafecMUTk7-0" value="" style="rounded=1;whiteSpace=wrap;html=1;fontFamily=Helvetica;fontSize=12;fontColor=#0000FF;strokeColor=#B3B3B3;dashed=1;strokeWidth=3;fillColor=#CCCCCC;" parent="8GRn8cEL_pyLPgJIwxRR-1" vertex="1">
          <mxGeometry x="390" y="417" width="823" height="648" as="geometry" />
        </mxCell>
        <mxCell id="o4EfD3Bi3a884Yv1wwd_-1" value="" style="rounded=1;whiteSpace=wrap;html=1;fontFamily=Helvetica;fontSize=12;fontColor=#0000FF;strokeColor=#B3B3B3;dashed=1;strokeWidth=3;" parent="8GRn8cEL_pyLPgJIwxRR-1" vertex="1">
          <mxGeometry x="45" y="22" width="1310" height="348" as="geometry" />
        </mxCell>
        <mxCell id="H8sk-5zNprzSNOgImhEd-0" value="Nautilus" style="rounded=1;whiteSpace=wrap;html=1;fontSize=12;fontStyle=0;fontFamily=Tahoma;strokeColor=#DAE8FC;fillColor=#66B2FF;" parent="8GRn8cEL_pyLPgJIwxRR-1" vertex="1">
          <mxGeometry x="102" y="90" width="120" height="60" as="geometry" />
        </mxCell>
        <mxCell id="H8sk-5zNprzSNOgImhEd-1" value="Repo 1" style="rounded=1;whiteSpace=wrap;html=1;fontSize=12;fontStyle=0;fontFamily=Tahoma;strokeColor=#DAE8FC;fillColor=#66B2FF;" parent="8GRn8cEL_pyLPgJIwxRR-1" vertex="1">
          <mxGeometry x="100" y="170" width="120" height="60" as="geometry" />
        </mxCell>
        <mxCell id="H8sk-5zNprzSNOgImhEd-2" value="Repo 2" style="rounded=1;whiteSpace=wrap;html=1;fontSize=12;fontStyle=0;fontFamily=Tahoma;strokeColor=#DAE8FC;fillColor=#66B2FF;" parent="8GRn8cEL_pyLPgJIwxRR-1" vertex="1">
          <mxGeometry x="100" y="260" width="120" height="60" as="geometry" />
        </mxCell>
        <mxCell id="4emAReoXgMQfO4xzz9Wq-1" value="Error Table" style="shape=cylinder3;whiteSpace=wrap;html=1;boundedLbl=1;backgroundOutline=1;size=15;fontStyle=0;strokeColor=#FFFFFF;fontColor=#001933;fontFamily=Tahoma;fontSize=12;fillColor=#66B2FF;" parent="8GRn8cEL_pyLPgJIwxRR-1" vertex="1">
          <mxGeometry x="776" y="130" width="110" height="80" as="geometry" />
        </mxCell>
        <mxCell id="b3GpidQnQlCoKcbRUe79-1" style="edgeStyle=none;rounded=0;orthogonalLoop=1;jettySize=auto;html=1;fontFamily=Helvetica;fontSize=22;fontColor=#999999;endArrow=none;endFill=0;" parent="8GRn8cEL_pyLPgJIwxRR-1" edge="1">
          <mxGeometry relative="1" as="geometry">
            <mxPoint x="394" y="204" as="sourcePoint" />
            <mxPoint x="478.9999999999998" y="203.42953020134223" as="targetPoint" />
          </mxGeometry>
        </mxCell>
        <mxCell id="4emAReoXgMQfO4xzz9Wq-2" value="&lt;font color=&quot;#000000&quot;&gt;Ingest&lt;br style=&quot;font-size: 12px&quot;&gt;Queues&lt;/font&gt;" style="whiteSpace=wrap;html=1;aspect=fixed;fontSize=12;fontStyle=0;fontColor=#0000FF;fontFamily=Tahoma;strokeColor=#DAE8FC;fillColor=#66B2FF;" parent="8GRn8cEL_pyLPgJIwxRR-1" vertex="1">
          <mxGeometry x="310" y="167" width="77" height="77" as="geometry" />
        </mxCell>
        <mxCell id="tp_qSCSOZ1XAV19L62_d-0" value="NIFI" style="rounded=0;whiteSpace=wrap;html=1;fontStyle=0;fontFamily=Tahoma;strokeColor=#DAE8FC;fontSize=12;fillColor=#66B2FF;" parent="8GRn8cEL_pyLPgJIwxRR-1" vertex="1">
          <mxGeometry x="481" y="173" width="128" height="60" as="geometry" />
        </mxCell>
        <mxCell id="tp_qSCSOZ1XAV19L62_d-1" value="File Service" style="rounded=0;whiteSpace=wrap;html=1;strokeColor=#FFFF00;fillColor=#FFFF00;" parent="8GRn8cEL_pyLPgJIwxRR-1" vertex="1">
          <mxGeometry x="800.25" y="927.5" width="108.75" height="47" as="geometry" />
        </mxCell>
        <mxCell id="tp_qSCSOZ1XAV19L62_d-2" value="Eva API Gateway" style="rounded=0;whiteSpace=wrap;html=1;strokeColor=#FFFF00;fillColor=#FFFF00;" parent="8GRn8cEL_pyLPgJIwxRR-1" vertex="1">
          <mxGeometry x="752" y="857" width="122" height="57" as="geometry" />
        </mxCell>
        <mxCell id="tp_qSCSOZ1XAV19L62_d-3" value="Catalog Service" style="rounded=0;whiteSpace=wrap;html=1;strokeColor=#FFFF00;fillColor=#FFFF00;" parent="8GRn8cEL_pyLPgJIwxRR-1" vertex="1">
          <mxGeometry x="863" y="997" width="102" height="47" as="geometry" />
        </mxCell>
        <mxCell id="TUChKr8w6d8KDoppHUxN-0" value="Rules Engine" style="rounded=0;whiteSpace=wrap;html=1;fontSize=12;fontStyle=0;fontFamily=Tahoma;strokeColor=#DAE8FC;fillColor=#66B2FF;" parent="8GRn8cEL_pyLPgJIwxRR-1" vertex="1">
          <mxGeometry x="415" y="257" width="70" height="54" as="geometry" />
        </mxCell>
        <mxCell id="TUChKr8w6d8KDoppHUxN-1" value="RCS" style="rounded=0;whiteSpace=wrap;html=1;fontSize=12;fontStyle=0;fontFamily=Tahoma;strokeColor=#DAE8FC;fillColor=#66B2FF;" parent="8GRn8cEL_pyLPgJIwxRR-1" vertex="1">
          <mxGeometry x="500" y="257" width="70" height="53" as="geometry" />
        </mxCell>
        <mxCell id="TUChKr8w6d8KDoppHUxN-2" value="RMM" style="rounded=0;whiteSpace=wrap;html=1;fontSize=12;fontStyle=0;fontFamily=Tahoma;strokeColor=#DAE8FC;fillColor=#66B2FF;" parent="8GRn8cEL_pyLPgJIwxRR-1" vertex="1">
          <mxGeometry x="585" y="257" width="82" height="54" as="geometry" />
        </mxCell>
        <mxCell id="KRypy5MPSIwkOqQzWDco-0" value="RMM Table" style="shape=cylinder3;whiteSpace=wrap;html=1;boundedLbl=1;backgroundOutline=1;size=15;fontStyle=0;fontColor=#001933;fontFamily=Tahoma;fontSize=12;strokeColor=#FFFFFF;fillColor=#66B2FF;" parent="8GRn8cEL_pyLPgJIwxRR-1" vertex="1">
          <mxGeometry x="776" y="231" width="110" height="80" as="geometry" />
        </mxCell>
        <mxCell id="Fogz1AL5jcSiEYsk1wpb-0" value="Disposition &amp;amp; Holds&lt;br&gt;Notification Service" style="rounded=0;whiteSpace=wrap;html=1;fontStyle=0;fontFamily=Tahoma;fillColor=#FFFF00;strokeColor=#FFFF00;fontColor=#001933;" parent="8GRn8cEL_pyLPgJIwxRR-1" vertex="1">
          <mxGeometry x="1033.5" y="233" width="132" height="70" as="geometry" />
        </mxCell>
        <mxCell id="o4EfD3Bi3a884Yv1wwd_-0" value="Scanning Center" style="rounded=0;whiteSpace=wrap;html=1;fontFamily=Helvetica;fontSize=12;shadow=1;fontStyle=0;strokeColor=#DAE8FC;fontColor=#001933;fillColor=#66B2FF;" parent="8GRn8cEL_pyLPgJIwxRR-1" vertex="1">
          <mxGeometry x="70" y="536" width="120" height="60" as="geometry" />
        </mxCell>
        <mxCell id="o4EfD3Bi3a884Yv1wwd_-5" value="Domain 1" style="text;html=1;resizable=0;autosize=1;align=center;verticalAlign=middle;points=[];fillColor=none;strokeColor=none;rounded=0;fontFamily=Tahoma;fontSize=20;fontStyle=1;fontColor=#B3B3B3;" parent="8GRn8cEL_pyLPgJIwxRR-1" vertex="1">
          <mxGeometry x="1157" y="314" width="106" height="28" as="geometry" />
        </mxCell>
        <mxCell id="y9-v0Gyv9dgvpdEKLWp3-0" value="System Z" style="rounded=0;whiteSpace=wrap;html=1;fontFamily=Helvetica;fontSize=12;shadow=1;fontStyle=0;strokeColor=#DAE8FC;fontColor=#001933;fillColor=#66B2FF;" parent="8GRn8cEL_pyLPgJIwxRR-1" vertex="1">
          <mxGeometry x="70" y="629" width="120" height="60" as="geometry" />
        </mxCell>
        <mxCell id="y9-v0Gyv9dgvpdEKLWp3-1" value="External S3 Buckets" style="rounded=0;whiteSpace=wrap;html=1;fontFamily=Helvetica;fontSize=12;shadow=1;fontStyle=0;strokeColor=#DAE8FC;fontColor=#001933;fillColor=#66B2FF;" parent="8GRn8cEL_pyLPgJIwxRR-1" vertex="1">
          <mxGeometry x="70" y="779" width="120" height="60" as="geometry" />
        </mxCell>
        <mxCell id="iPk3lw1UgvvWzOIhn1F7-0" value="Data Processing Queues" style="rounded=0;whiteSpace=wrap;html=1;fontStyle=0;strokeColor=#DAE8FC;fontFamily=Helvetica;fontColor=#001933;shadow=1;fillColor=#66B2FF;" parent="8GRn8cEL_pyLPgJIwxRR-1" vertex="1">
          <mxGeometry x="254" y="587" width="120" height="62" as="geometry" />
        </mxCell>
        <mxCell id="JQuI49Ytckf8pFcLC_Wx-1" value="NIFI" style="rounded=0;whiteSpace=wrap;html=1;fillColor=#FFFF00;strokeColor=#FFFF00;fontColor=#000000;fontFamily=Helvetica;" parent="8GRn8cEL_pyLPgJIwxRR-1" vertex="1">
          <mxGeometry x="478" y="586" width="128" height="63" as="geometry" />
        </mxCell>
        <mxCell id="VbCRLDqnvHzPidaAszwh-1" value="S3 Landing Zone" style="rounded=0;whiteSpace=wrap;html=1;strokeColor=#FFFF00;fontFamily=Helvetica;fontSize=12;fontColor=#000000;fillColor=#FFFF00;" parent="8GRn8cEL_pyLPgJIwxRR-1" vertex="1">
          <mxGeometry x="457" y="777" width="115" height="52" as="geometry" />
        </mxCell>
        <mxCell id="LhIq0DCPOpo1AK3piTM1-0" value="Ingest&lt;br style=&quot;font-size: 13px;&quot;&gt;Queue" style="whiteSpace=wrap;html=1;aspect=fixed;strokeColor=#FFFF00;fontFamily=Helvetica;fontSize=12;fontColor=#000000;rounded=0;fillColor=#FFFF00;" parent="8GRn8cEL_pyLPgJIwxRR-1" vertex="1">
          <mxGeometry x="478" y="682" width="60" height="60" as="geometry" />
        </mxCell>
        <mxCell id="YWgAMOBUbAf68iHupFmZ-0" value="&lt;font style=&quot;font-size: 12px&quot;&gt;Workspace&lt;/font&gt;" style="shape=cylinder3;whiteSpace=wrap;html=1;boundedLbl=1;backgroundOutline=1;size=15;fontFamily=Tahoma;fontSize=12;fontColor=#001933;fontStyle=0;strokeColor=#FFFFFF;fillColor=#66B2FF;" parent="8GRn8cEL_pyLPgJIwxRR-1" vertex="1">
          <mxGeometry x="638" y="769" width="59" height="85" as="geometry" />
        </mxCell>
        <mxCell id="Q_hmxI2UZN9Nb-fGkq-i-0" value="Catalog Storage" style="shape=cylinder3;whiteSpace=wrap;html=1;boundedLbl=1;backgroundOutline=1;size=15;strokeColor=#FFFFFF;fontFamily=Helvetica;fontSize=12;fontColor=#000000;fillColor=#FFFF00;rounded=0;" parent="8GRn8cEL_pyLPgJIwxRR-1" vertex="1">
          <mxGeometry x="1065" y="874" width="72" height="80" as="geometry" />
        </mxCell>
        <mxCell id="Q_hmxI2UZN9Nb-fGkq-i-1" value="Object Storage" style="shape=cylinder3;whiteSpace=wrap;html=1;boundedLbl=1;backgroundOutline=1;size=15;strokeColor=#FFFFFF;fontFamily=Helvetica;fontSize=12;fontColor=#000000;fillColor=#FFFF00;rounded=0;" parent="8GRn8cEL_pyLPgJIwxRR-1" vertex="1">
          <mxGeometry x="1063" y="773" width="73" height="80" as="geometry" />
        </mxCell>
        <mxCell id="Q_hmxI2UZN9Nb-fGkq-i-2" value="Metadata&lt;br style=&quot;font-size: 12px;&quot;&gt;Storage" style="shape=cylinder3;whiteSpace=wrap;html=1;boundedLbl=1;backgroundOutline=1;size=15;fontFamily=Tahoma;fontSize=12;fontColor=#001933;fontStyle=0;strokeColor=#FFFFFF;fillColor=#66B2FF;" parent="8GRn8cEL_pyLPgJIwxRR-1" vertex="1">
          <mxGeometry x="1060" y="662" width="76" height="80" as="geometry" />
        </mxCell>
        <mxCell id="Q_hmxI2UZN9Nb-fGkq-i-3" value="Error Table" style="shape=cylinder3;whiteSpace=wrap;html=1;boundedLbl=1;backgroundOutline=1;size=15;fontFamily=Tahoma;fontSize=12;fontStyle=0;strokeColor=#FFFFFF;fontColor=#001933;fillColor=#66B2FF;" parent="8GRn8cEL_pyLPgJIwxRR-1" vertex="1">
          <mxGeometry x="1058" y="554" width="79" height="80" as="geometry" />
        </mxCell>
        <mxCell id="Q_hmxI2UZN9Nb-fGkq-i-4" value="P&amp;amp;L Storage" style="shape=cylinder3;whiteSpace=wrap;html=1;boundedLbl=1;backgroundOutline=1;size=15;fontFamily=Helvetica;fontSize=12;fontColor=#000000;fillColor=#FFFF00;rounded=0;strokeColor=#FFFFFF;" parent="8GRn8cEL_pyLPgJIwxRR-1" vertex="1">
          <mxGeometry x="1058" y="450" width="81" height="80" as="geometry" />
        </mxCell>
        <mxCell id="i0A42X5kdxcPcSl37FLX-0" value="Pedigree &amp;amp; Lineage Service" style="rounded=0;whiteSpace=wrap;html=1;fillColor=#FFFF00;strokeColor=#FFFF00;" parent="8GRn8cEL_pyLPgJIwxRR-1" vertex="1">
          <mxGeometry x="891" y="468.5" width="102" height="47" as="geometry" />
        </mxCell>
        <mxCell id="AvAlvdCXBIiCQL_vK7Ba-0" value="SQS Queues" style="whiteSpace=wrap;html=1;aspect=fixed;strokeColor=#FFFF00;fontFamily=Helvetica;fontSize=12;fontColor=#000000;rounded=1;fillColor=#FFFF00;" parent="8GRn8cEL_pyLPgJIwxRR-1" vertex="1">
          <mxGeometry x="1253" y="672.5" width="80" height="80" as="geometry" />
        </mxCell>
        <mxCell id="AvAlvdCXBIiCQL_vK7Ba-1" value="UI" style="whiteSpace=wrap;html=1;aspect=fixed;shadow=1;fontFamily=Helvetica;fontSize=14;rounded=0;fontStyle=1;strokeColor=#DAE8FC;fontColor=#001933;fillColor=#66B2FF;" parent="8GRn8cEL_pyLPgJIwxRR-1" vertex="1">
          <mxGeometry x="475" y="954" width="93" height="93" as="geometry" />
        </mxCell>
        <mxCell id="Sk0pl76J8H8ascU4p57v-1" value="Domain 2" style="text;html=1;resizable=0;autosize=1;align=center;verticalAlign=middle;points=[];fillColor=none;strokeColor=none;rounded=0;fontFamily=Tahoma;fontSize=20;fontStyle=1;fontColor=#B3B3B3;" parent="8GRn8cEL_pyLPgJIwxRR-1" vertex="1">
          <mxGeometry x="1198" y="1050" width="106" height="28" as="geometry" />
        </mxCell>
        <mxCell id="Sk0pl76J8H8ascU4p57v-2" value="Eva 2.0" style="text;html=1;resizable=0;autosize=1;align=center;verticalAlign=middle;points=[];fillColor=none;strokeColor=none;rounded=0;fontFamily=Helvetica;fontSize=22;fontStyle=1;fontColor=#666666;" parent="8GRn8cEL_pyLPgJIwxRR-1" vertex="1">
          <mxGeometry x="451" y="439" width="86" height="30" as="geometry" />
        </mxCell>
        <mxCell id="x10ZkcdIIxR5KVXHCJuZ-0" value="" style="strokeWidth=2;html=1;shape=mxgraph.flowchart.annotation_2;align=left;labelPosition=right;pointerEvents=1;rounded=1;shadow=1;fillColor=#66B2FF;fontFamily=Helvetica;fontSize=22;fontColor=#000000;rotation=-180;" parent="8GRn8cEL_pyLPgJIwxRR-1" vertex="1">
          <mxGeometry x="196" y="559" width="50" height="100" as="geometry" />
        </mxCell>
        <mxCell id="x10ZkcdIIxR5KVXHCJuZ-1" value="" style="strokeWidth=2;html=1;shape=mxgraph.flowchart.annotation_2;align=left;labelPosition=right;pointerEvents=1;rounded=1;shadow=1;fillColor=#66B2FF;fontFamily=Helvetica;fontSize=22;fontColor=#000000;rotation=-180;" parent="8GRn8cEL_pyLPgJIwxRR-1" vertex="1">
          <mxGeometry x="235" y="124" width="50" height="166" as="geometry" />
        </mxCell>
        <mxCell id="mZ3fiNAdU3FDvoejI6Ow-0" value="GUIDE*" style="rounded=0;whiteSpace=wrap;html=1;shadow=1;strokeWidth=3;fillColor=#ffffff;fontFamily=Helvetica;fontSize=22;fontColor=#000000;" parent="8GRn8cEL_pyLPgJIwxRR-1" vertex="1">
          <mxGeometry x="35" y="1445" width="150" height="80" as="geometry" />
        </mxCell>
        <mxCell id="mZ3fiNAdU3FDvoejI6Ow-1" value="Enterprise Catalog" style="rounded=0;whiteSpace=wrap;html=1;shadow=1;strokeWidth=3;fontFamily=Helvetica;fontSize=22;" parent="8GRn8cEL_pyLPgJIwxRR-1" vertex="1">
          <mxGeometry x="873" y="1140" width="120" height="80" as="geometry" />
        </mxCell>
        <mxCell id="mZ3fiNAdU3FDvoejI6Ow-2" value="Index Service" style="rounded=0;whiteSpace=wrap;html=1;shadow=1;strokeWidth=3;fontFamily=Helvetica;fontSize=22;" parent="8GRn8cEL_pyLPgJIwxRR-1" vertex="1">
          <mxGeometry x="724" y="1372" width="155" height="78" as="geometry" />
        </mxCell>
        <mxCell id="mZ3fiNAdU3FDvoejI6Ow-3" value="Enterprise Authorization" style="rounded=0;whiteSpace=wrap;html=1;shadow=1;strokeWidth=3;fontFamily=Helvetica;fontSize=22;" parent="8GRn8cEL_pyLPgJIwxRR-1" vertex="1">
          <mxGeometry x="724" y="1267" width="150" height="80" as="geometry" />
        </mxCell>
        <mxCell id="mZ3fiNAdU3FDvoejI6Ow-4" value="SMART" style="rounded=0;whiteSpace=wrap;html=1;shadow=1;strokeWidth=3;fontFamily=Helvetica;fontSize=22;" parent="8GRn8cEL_pyLPgJIwxRR-1" vertex="1">
          <mxGeometry x="543" y="1269.5" width="120" height="75" as="geometry" />
        </mxCell>
        <mxCell id="mZ3fiNAdU3FDvoejI6Ow-5" value="CMT" style="rounded=0;whiteSpace=wrap;html=1;shadow=1;strokeWidth=3;fontFamily=Helvetica;fontSize=22;" parent="8GRn8cEL_pyLPgJIwxRR-1" vertex="1">
          <mxGeometry x="429" y="1170" width="120" height="82" as="geometry" />
        </mxCell>
        <mxCell id="PKbZZqCtAfmhuB_pZ12Z-0" value="*Used by multiple services" style="text;html=1;resizable=0;autosize=1;align=center;verticalAlign=middle;points=[];fillColor=none;strokeColor=none;rounded=0;shadow=1;fontFamily=Helvetica;fontSize=22;fontStyle=2;fontColor=#999999;" parent="8GRn8cEL_pyLPgJIwxRR-1" vertex="1">
          <mxGeometry x="12" y="1655" width="268" height="30" as="geometry" />
        </mxCell>
        <mxCell id="-2MpsNVtfdLoChrFHLcY-0" value="" style="strokeWidth=2;html=1;shape=mxgraph.flowchart.annotation_2;align=left;labelPosition=right;pointerEvents=1;rounded=1;shadow=1;fillColor=#66B2FF;fontFamily=Helvetica;fontSize=22;fontColor=#000000;rotation=90;" parent="8GRn8cEL_pyLPgJIwxRR-1" vertex="1">
          <mxGeometry x="530.5" y="159.5" width="29" height="166" as="geometry" />
        </mxCell>
        <mxCell id="hYZpxrXW_turtQhxQ0qJ-3" style="edgeStyle=none;rounded=0;orthogonalLoop=1;jettySize=auto;html=1;fontFamily=Helvetica;fontSize=22;fontColor=#999999;endArrow=none;endFill=0;" parent="8GRn8cEL_pyLPgJIwxRR-1" edge="1">
          <mxGeometry relative="1" as="geometry">
            <mxPoint x="675" y="283" as="sourcePoint" />
            <mxPoint x="768.9999999999998" y="283.28424936386773" as="targetPoint" />
          </mxGeometry>
        </mxCell>
        <mxCell id="hYZpxrXW_turtQhxQ0qJ-4" style="edgeStyle=none;rounded=0;orthogonalLoop=1;jettySize=auto;html=1;fontFamily=Helvetica;fontSize=22;fontColor=#999999;endArrow=none;endFill=0;exitX=0.465;exitY=0.498;exitDx=0;exitDy=0;exitPerimeter=0;" parent="8GRn8cEL_pyLPgJIwxRR-1" source="o4EfD3Bi3a884Yv1wwd_-1" edge="1">
          <mxGeometry relative="1" as="geometry">
            <mxPoint x="657.0000000000002" y="189.48017811704844" as="sourcePoint" />
            <mxPoint x="744" y="195" as="targetPoint" />
          </mxGeometry>
        </mxCell>
        <mxCell id="L0LfUayfkjiLCGtMfq46-13" value="" style="strokeWidth=1;html=1;shape=mxgraph.flowchart.annotation_1;align=left;pointerEvents=1;rounded=1;shadow=1;fillColor=#66B2FF;fontFamily=Helvetica;fontSize=22;fontColor=#999999;rotation=-90;" parent="8GRn8cEL_pyLPgJIwxRR-1" vertex="1">
          <mxGeometry x="859.25" y="91.25" width="32" height="469.5" as="geometry" />
        </mxCell>
        <mxCell id="8_c3Tt9Frdq-P5RMduP3-0" style="edgeStyle=none;rounded=0;orthogonalLoop=1;jettySize=auto;html=1;fontFamily=Helvetica;fontSize=22;fontColor=#999999;endArrow=none;endFill=0;exitX=0.041;exitY=0.562;exitDx=0;exitDy=0;exitPerimeter=0;" parent="8GRn8cEL_pyLPgJIwxRR-1" edge="1">
          <mxGeometry relative="1" as="geometry">
            <mxPoint x="441.21000000000004" y="804.7719999999999" as="sourcePoint" />
            <mxPoint x="208" y="805" as="targetPoint" />
          </mxGeometry>
        </mxCell>
        <mxCell id="6iJRTpY1ZOH6TDsP827d-0" value="" style="verticalLabelPosition=bottom;shadow=0;dashed=0;align=center;html=1;verticalAlign=top;strokeWidth=1;shape=mxgraph.mockup.markup.line;direction=north;rounded=1;fillColor=#66B2FF;fontFamily=Helvetica;fontSize=22;fontColor=#999999;" parent="8GRn8cEL_pyLPgJIwxRR-1" vertex="1">
          <mxGeometry x="500" y="651" width="20" height="26" as="geometry" />
        </mxCell>
        <mxCell id="6iJRTpY1ZOH6TDsP827d-1" value="" style="verticalLabelPosition=bottom;shadow=0;dashed=0;align=center;html=1;verticalAlign=top;strokeWidth=1;shape=mxgraph.mockup.markup.line;direction=north;rounded=1;fillColor=#66B2FF;fontFamily=Helvetica;fontSize=22;fontColor=#999999;" parent="8GRn8cEL_pyLPgJIwxRR-1" vertex="1">
          <mxGeometry x="497" y="746" width="20" height="25" as="geometry" />
        </mxCell>
        <mxCell id="pXc_XupL8ljSO-Gdw1BL-0" style="edgeStyle=none;rounded=0;orthogonalLoop=1;jettySize=auto;html=1;fontFamily=Helvetica;fontSize=22;fontColor=#999999;endArrow=none;endFill=0;" parent="8GRn8cEL_pyLPgJIwxRR-1" edge="1">
          <mxGeometry relative="1" as="geometry">
            <mxPoint x="580" y="809" as="sourcePoint" />
            <mxPoint x="588" y="809" as="targetPoint" />
            <Array as="points">
              <mxPoint x="618" y="809" />
            </Array>
          </mxGeometry>
        </mxCell>
        <mxCell id="pXc_XupL8ljSO-Gdw1BL-1" style="edgeStyle=none;rounded=0;orthogonalLoop=1;jettySize=auto;html=1;fontFamily=Helvetica;fontSize=22;fontColor=#999999;endArrow=none;endFill=0;exitX=0.041;exitY=0.562;exitDx=0;exitDy=0;exitPerimeter=0;strokeWidth=3;" parent="8GRn8cEL_pyLPgJIwxRR-1" edge="1">
          <mxGeometry relative="1" as="geometry">
            <mxPoint x="457.00000000000006" y="615.0020000000002" as="sourcePoint" />
            <mxPoint x="381.79" y="615" as="targetPoint" />
          </mxGeometry>
        </mxCell>
        <mxCell id="TfyGnHHihUNiANl7MBIq-1" value="" style="edgeStyle=elbowEdgeStyle;elbow=horizontal;endArrow=none;html=1;strokeWidth=1;fontFamily=Helvetica;fontSize=22;fontColor=#999999;endFill=0;strokeColor=#FF8000;" parent="8GRn8cEL_pyLPgJIwxRR-1" edge="1">
          <mxGeometry width="50" height="50" relative="1" as="geometry">
            <mxPoint x="974" y="1018.5" as="sourcePoint" />
            <mxPoint x="1045" y="922" as="targetPoint" />
          </mxGeometry>
        </mxCell>
        <mxCell id="T6dgft-2LP3lvTS5HCdP-1" value="" style="line;strokeWidth=1;direction=south;html=1;rounded=1;fontFamily=Helvetica;fontSize=22;fontColor=#999999;verticalAlign=middle;endFill=0;strokeColor=#FFFF00;" parent="8GRn8cEL_pyLPgJIwxRR-1" vertex="1">
          <mxGeometry x="948" y="526" width="10" height="453" as="geometry" />
        </mxCell>
        <mxCell id="T6dgft-2LP3lvTS5HCdP-2" value="" style="line;strokeWidth=1;html=1;rounded=1;shadow=0;fillColor=#66B2FF;fontFamily=Helvetica;fontSize=22;fontColor=#999999;" parent="8GRn8cEL_pyLPgJIwxRR-1" vertex="1">
          <mxGeometry x="999" y="485" width="43" height="10" as="geometry" />
        </mxCell>
        <mxCell id="C_eaKCtkpU86BVCSOlvi-0" value="" style="edgeStyle=elbowEdgeStyle;elbow=horizontal;endArrow=none;html=1;strokeWidth=1;fontFamily=Helvetica;fontSize=22;fontColor=#999999;endFill=0;strokeColor=#3333FF;" parent="8GRn8cEL_pyLPgJIwxRR-1" edge="1">
          <mxGeometry width="50" height="50" relative="1" as="geometry">
            <mxPoint x="916.5" y="940.5" as="sourcePoint" />
            <mxPoint x="1056" y="702" as="targetPoint" />
          </mxGeometry>
        </mxCell>
        <mxCell id="YIdWpNlQ_M5ASSiT82eI-0" value="" style="edgeStyle=elbowEdgeStyle;elbow=horizontal;endArrow=none;html=1;strokeWidth=1;fontFamily=Helvetica;fontSize=22;fontColor=#999999;endFill=0;entryX=0.023;entryY=0.671;entryDx=0;entryDy=0;entryPerimeter=0;strokeColor=#3333FF;" parent="8GRn8cEL_pyLPgJIwxRR-1" edge="1">
          <mxGeometry width="50" height="50" relative="1" as="geometry">
            <mxPoint x="922" y="955.5" as="sourcePoint" />
            <mxPoint x="1064.679" y="848.6799999999998" as="targetPoint" />
            <Array as="points">
              <mxPoint x="1000" y="900" />
            </Array>
          </mxGeometry>
        </mxCell>
        <mxCell id="z4H9Wl1vq4-Ua8EckgTX-0" value="" style="line;strokeWidth=1;direction=south;html=1;rounded=1;fontFamily=Helvetica;fontSize=22;fontColor=#999999;verticalAlign=middle;strokeColor=#3333FF;endFill=0;" parent="8GRn8cEL_pyLPgJIwxRR-1" vertex="1">
          <mxGeometry x="893" y="528" width="10" height="388.5" as="geometry" />
        </mxCell>
        <mxCell id="3abOW29c_p49u5XupUHu-0" value="" style="line;strokeWidth=1;direction=south;html=1;rounded=1;fillColor=#ffffff;fontFamily=Helvetica;fontSize=22;fontColor=#999999;verticalAlign=middle;strokeColor=#3333FF;endFill=0;" parent="8GRn8cEL_pyLPgJIwxRR-1" vertex="1">
          <mxGeometry x="870" y="979" width="10" height="20" as="geometry" />
        </mxCell>
        <mxCell id="3abOW29c_p49u5XupUHu-2" value="" style="edgeStyle=segmentEdgeStyle;endArrow=none;html=1;strokeColor=#00CC00;strokeWidth=1;fontFamily=Helvetica;fontSize=22;fontColor=#00FF00;endFill=0;" parent="8GRn8cEL_pyLPgJIwxRR-1" edge="1">
          <mxGeometry width="50" height="50" relative="1" as="geometry">
            <mxPoint x="728" y="1255" as="sourcePoint" />
            <mxPoint x="743" y="898" as="targetPoint" />
            <Array as="points">
              <mxPoint x="728" y="898" />
            </Array>
          </mxGeometry>
        </mxCell>
        <mxCell id="7zjQm53CYR00rezUCUQR-5" value="" style="edgeStyle=elbowEdgeStyle;elbow=horizontal;endArrow=none;html=1;strokeColor=#00CC00;strokeWidth=1;fontFamily=Helvetica;fontSize=14;fontColor=#00FF00;endFill=0;" parent="8GRn8cEL_pyLPgJIwxRR-1" edge="1">
          <mxGeometry width="50" height="50" relative="1" as="geometry">
            <mxPoint x="709" y="799" as="sourcePoint" />
            <mxPoint x="750" y="864" as="targetPoint" />
            <Array as="points">
              <mxPoint x="724" y="836" />
            </Array>
          </mxGeometry>
        </mxCell>
        <mxCell id="oBbKrED4byUIZWRZin6X-1" value="" style="edgeStyle=segmentEdgeStyle;endArrow=none;html=1;strokeColor=#00CC00;strokeWidth=1;fontFamily=Helvetica;fontSize=22;fontColor=#00FF00;endFill=0;" parent="8GRn8cEL_pyLPgJIwxRR-1" edge="1">
          <mxGeometry width="50" height="50" relative="1" as="geometry">
            <mxPoint x="824" y="840" as="sourcePoint" />
            <mxPoint x="886" y="485" as="targetPoint" />
            <Array as="points">
              <mxPoint x="824" y="485" />
            </Array>
          </mxGeometry>
        </mxCell>
        <mxCell id="oBbKrED4byUIZWRZin6X-3" value="" style="edgeStyle=segmentEdgeStyle;endArrow=none;html=1;strokeColor=#3333FF;strokeWidth=1;fontFamily=Helvetica;fontSize=22;fontColor=#999999;endFill=0;" parent="8GRn8cEL_pyLPgJIwxRR-1" edge="1">
          <mxGeometry width="50" height="50" relative="1" as="geometry">
            <mxPoint x="785" y="1253" as="sourcePoint" />
            <mxPoint x="800.25" y="958" as="targetPoint" />
            <Array as="points">
              <mxPoint x="785" y="1253" />
              <mxPoint x="785" y="958" />
            </Array>
          </mxGeometry>
        </mxCell>
        <mxCell id="oBbKrED4byUIZWRZin6X-4" value="" style="edgeStyle=elbowEdgeStyle;elbow=horizontal;endArrow=none;html=1;strokeColor=#00CC00;strokeWidth=1;fontFamily=Helvetica;fontSize=14;fontColor=#00FF00;endFill=0;" parent="8GRn8cEL_pyLPgJIwxRR-1" edge="1">
          <mxGeometry width="50" height="50" relative="1" as="geometry">
            <mxPoint x="740" y="885" as="sourcePoint" />
            <mxPoint x="715" y="1407" as="targetPoint" />
            <Array as="points">
              <mxPoint x="689" y="1379" />
            </Array>
          </mxGeometry>
        </mxCell>
        <mxCell id="oBbKrED4byUIZWRZin6X-5" value="" style="verticalLabelPosition=bottom;shadow=0;dashed=0;align=center;html=1;verticalAlign=top;strokeWidth=1;shape=mxgraph.mockup.markup.line;direction=north;rounded=1;fillColor=#66B2FF;fontFamily=Helvetica;fontSize=22;fontColor=#999999;" parent="8GRn8cEL_pyLPgJIwxRR-1" vertex="1">
          <mxGeometry x="511.5" y="1065" width="20" height="88" as="geometry" />
        </mxCell>
        <mxCell id="bSDDatie8y5GvcqhgUNN-4" value="" style="edgeStyle=elbowEdgeStyle;elbow=vertical;endArrow=none;html=1;strokeColor=#00CC00;strokeWidth=1;fontFamily=Helvetica;fontSize=14;fontColor=#00FF00;endFill=0;exitX=0.27;exitY=-0.079;exitDx=0;exitDy=0;exitPerimeter=0;" parent="8GRn8cEL_pyLPgJIwxRR-1" source="tp_qSCSOZ1XAV19L62_d-2" edge="1">
          <mxGeometry width="50" height="50" relative="1" as="geometry">
            <mxPoint x="597.5" y="902" as="sourcePoint" />
            <mxPoint x="559.5" y="320" as="targetPoint" />
            <Array as="points">
              <mxPoint x="673" y="445" />
            </Array>
          </mxGeometry>
        </mxCell>
        <mxCell id="bSDDatie8y5GvcqhgUNN-5" value="" style="edgeStyle=elbowEdgeStyle;elbow=vertical;endArrow=none;html=1;strokeColor=#00CC00;strokeWidth=1;fontFamily=Helvetica;fontSize=14;fontColor=#00FF00;endFill=0;" parent="8GRn8cEL_pyLPgJIwxRR-1" edge="1">
          <mxGeometry width="50" height="50" relative="1" as="geometry">
            <mxPoint x="759" y="856" as="sourcePoint" />
            <mxPoint x="627" y="316" as="targetPoint" />
            <Array as="points">
              <mxPoint x="734" y="472" />
            </Array>
          </mxGeometry>
        </mxCell>
        <mxCell id="jarMSilvyUycNx23DqDR-0" value="" style="edgeStyle=elbowEdgeStyle;elbow=horizontal;endArrow=none;html=1;strokeColor=#00CC00;strokeWidth=1;fontFamily=Helvetica;fontSize=14;fontColor=#00FF00;endFill=0;" parent="8GRn8cEL_pyLPgJIwxRR-1" edge="1">
          <mxGeometry width="50" height="50" relative="1" as="geometry">
            <mxPoint x="880" y="889" as="sourcePoint" />
            <mxPoint x="936" y="984" as="targetPoint" />
            <Array as="points">
              <mxPoint x="936" y="926" />
            </Array>
          </mxGeometry>
        </mxCell>
        <mxCell id="tZDkK5jwySZbS78D0Iar-0" value="" style="line;strokeWidth=2;direction=south;html=1;rounded=1;shadow=0;fontFamily=Helvetica;fontSize=14;fontColor=#00FF00;fillColor=#FF0000;strokeColor=#FF0000;" parent="8GRn8cEL_pyLPgJIwxRR-1" vertex="1">
          <mxGeometry x="580" y="654" width="10" height="596" as="geometry" />
        </mxCell>
        <mxCell id="qzwQYNqn-l1VmCQGiIjA-0" value="" style="line;strokeWidth=2;direction=south;html=1;rounded=1;shadow=0;fillColor=#FF0000;fontFamily=Helvetica;fontSize=14;fontColor=#00FF00;strokeColor=#FFFF00;" parent="8GRn8cEL_pyLPgJIwxRR-1" vertex="1">
          <mxGeometry x="909" y="1052" width="10" height="77" as="geometry" />
        </mxCell>
        <mxCell id="qzwQYNqn-l1VmCQGiIjA-2" value="" style="edgeStyle=elbowEdgeStyle;elbow=vertical;endArrow=none;html=1;strokeWidth=1;fontFamily=Helvetica;fontSize=14;fontColor=#00FF00;strokeColor=#FF0000;endFill=0;" parent="8GRn8cEL_pyLPgJIwxRR-1" target="JQuI49Ytckf8pFcLC_Wx-1" edge="1">
          <mxGeometry width="50" height="50" relative="1" as="geometry">
            <mxPoint x="350" y="254" as="sourcePoint" />
            <mxPoint x="442" y="544" as="targetPoint" />
            <Array as="points">
              <mxPoint x="442" y="492" />
            </Array>
          </mxGeometry>
        </mxCell>
        <mxCell id="95B5-7VB0HA2pm85Qsy9-1" value="" style="edgeStyle=elbowEdgeStyle;elbow=horizontal;endArrow=none;html=1;strokeColor=#FF0000;strokeWidth=1;fontFamily=Helvetica;fontSize=14;fontColor=#00FF00;endFill=0;" parent="8GRn8cEL_pyLPgJIwxRR-1" edge="1">
          <mxGeometry width="50" height="50" relative="1" as="geometry">
            <mxPoint x="629" y="626" as="sourcePoint" />
            <mxPoint x="1056" y="685" as="targetPoint" />
          </mxGeometry>
        </mxCell>
        <mxCell id="95B5-7VB0HA2pm85Qsy9-2" value="" style="edgeStyle=elbowEdgeStyle;elbow=horizontal;endArrow=none;html=1;strokeColor=#FF0000;strokeWidth=1;fontFamily=Helvetica;fontSize=14;fontColor=#00FF00;entryX=-0.014;entryY=0.463;entryDx=0;entryDy=0;entryPerimeter=0;endFill=0;" parent="8GRn8cEL_pyLPgJIwxRR-1" target="Q_hmxI2UZN9Nb-fGkq-i-1" edge="1">
          <mxGeometry width="50" height="50" relative="1" as="geometry">
            <mxPoint x="630" y="636" as="sourcePoint" />
            <mxPoint x="1066" y="696" as="targetPoint" />
            <Array as="points">
              <mxPoint x="742" y="782" />
              <mxPoint x="710" y="728" />
            </Array>
          </mxGeometry>
        </mxCell>
        <mxCell id="95B5-7VB0HA2pm85Qsy9-3" value="" style="edgeStyle=elbowEdgeStyle;elbow=horizontal;endArrow=none;html=1;strokeColor=#FF0000;strokeWidth=1;fontFamily=Helvetica;fontSize=14;fontColor=#00FF00;endFill=0;" parent="8GRn8cEL_pyLPgJIwxRR-1" edge="1">
          <mxGeometry width="50" height="50" relative="1" as="geometry">
            <mxPoint x="627" y="592" as="sourcePoint" />
            <mxPoint x="884" y="508" as="targetPoint" />
            <Array as="points">
              <mxPoint x="726" y="558" />
            </Array>
          </mxGeometry>
        </mxCell>
        <mxCell id="WGszRsOwaPm_QJZ5Lx5x-0" value="" style="edgeStyle=elbowEdgeStyle;elbow=horizontal;endArrow=none;html=1;strokeColor=#FF0000;strokeWidth=1;fontFamily=Helvetica;fontSize=14;fontColor=#00FF00;endFill=0;" parent="8GRn8cEL_pyLPgJIwxRR-1" edge="1">
          <mxGeometry width="50" height="50" relative="1" as="geometry">
            <mxPoint x="629" y="607" as="sourcePoint" />
            <mxPoint x="1056" y="602" as="targetPoint" />
            <Array as="points">
              <mxPoint x="860" y="581" />
            </Array>
          </mxGeometry>
        </mxCell>
        <mxCell id="SsO4Lzo8B7FafecMUTk7-3" value="" style="edgeStyle=segmentEdgeStyle;endArrow=none;html=1;strokeWidth=1;fontFamily=Helvetica;fontSize=14;fontColor=#00FF00;strokeColor=#990099;endFill=0;" parent="8GRn8cEL_pyLPgJIwxRR-1" edge="1">
          <mxGeometry width="50" height="50" relative="1" as="geometry">
            <mxPoint x="903" y="1423" as="sourcePoint" />
            <mxPoint x="1300" y="763" as="targetPoint" />
            <Array as="points">
              <mxPoint x="903" y="1423" />
              <mxPoint x="1300" y="1423" />
            </Array>
          </mxGeometry>
        </mxCell>
        <mxCell id="g_-1xbZSGJ4llTsOHdGe-0" value="" style="edgeStyle=elbowEdgeStyle;elbow=horizontal;endArrow=none;html=1;strokeColor=#990099;strokeWidth=1;fontFamily=Helvetica;fontSize=14;fontColor=#00FF00;endFill=0;" parent="8GRn8cEL_pyLPgJIwxRR-1" edge="1">
          <mxGeometry width="50" height="50" relative="1" as="geometry">
            <mxPoint x="908" y="1398" as="sourcePoint" />
            <mxPoint x="1146" y="813" as="targetPoint" />
            <Array as="points">
              <mxPoint x="1253" y="893" />
            </Array>
          </mxGeometry>
        </mxCell>
        <mxCell id="g_-1xbZSGJ4llTsOHdGe-1" value="" style="edgeStyle=elbowEdgeStyle;elbow=horizontal;endArrow=none;html=1;strokeColor=#990099;strokeWidth=1;fontFamily=Helvetica;fontSize=14;fontColor=#00FF00;endFill=0;" parent="8GRn8cEL_pyLPgJIwxRR-1" edge="1">
          <mxGeometry width="50" height="50" relative="1" as="geometry">
            <mxPoint x="905" y="1378" as="sourcePoint" />
            <mxPoint x="1143" y="707" as="targetPoint" />
            <Array as="points">
              <mxPoint x="1225" y="875" />
            </Array>
          </mxGeometry>
        </mxCell>
        <mxCell id="Vb9UlL-58ri_AxScYlJQ-0" value="" style="edgeStyle=segmentEdgeStyle;endArrow=none;html=1;strokeColor=#990099;strokeWidth=1;fontFamily=Helvetica;fontSize=14;fontColor=#00FF00;endFill=0;" parent="8GRn8cEL_pyLPgJIwxRR-1" source="_qIGpLVhdSEVO8uDuWI8-0" edge="1">
          <mxGeometry width="50" height="50" relative="1" as="geometry">
            <mxPoint x="1454" y="654" as="sourcePoint" />
            <mxPoint x="350" y="161" as="targetPoint" />
            <Array as="points">
              <mxPoint x="1270" y="98" />
              <mxPoint x="350" y="98" />
            </Array>
          </mxGeometry>
        </mxCell>
        <mxCell id="Vb9UlL-58ri_AxScYlJQ-1" value="" style="line;strokeWidth=1;direction=south;html=1;rounded=1;fontFamily=Helvetica;fontSize=14;fontColor=#00FF00;verticalAlign=middle;strokeColor=#990099;endArrow=classic;" parent="8GRn8cEL_pyLPgJIwxRR-1" vertex="1">
          <mxGeometry x="1266" y="402" width="10" height="241" as="geometry" />
        </mxCell>
        <mxCell id="OOmUElffl2DUGrRPXXFI-1" value="" style="edgeStyle=elbowEdgeStyle;elbow=horizontal;endArrow=none;html=1;strokeColor=#990099;strokeWidth=1;fontFamily=Helvetica;fontSize=14;fontColor=#00FF00;endFill=0;" parent="8GRn8cEL_pyLPgJIwxRR-1" source="_qIGpLVhdSEVO8uDuWI8-0" edge="1">
          <mxGeometry width="50" height="50" relative="1" as="geometry">
            <mxPoint x="1256" y="468.5" as="sourcePoint" />
            <mxPoint x="1174" y="267.5" as="targetPoint" />
            <Array as="points">
              <mxPoint x="1297" y="338" />
              <mxPoint x="1297" y="341" />
              <mxPoint x="1256" y="305.5" />
            </Array>
          </mxGeometry>
        </mxCell>
        <mxCell id="OOmUElffl2DUGrRPXXFI-2" value="" style="line;strokeWidth=1;direction=south;html=1;rounded=1;fontFamily=Helvetica;fontSize=14;fontColor=#00FF00;verticalAlign=middle;strokeColor=#990099;endArrow=classic;" parent="8GRn8cEL_pyLPgJIwxRR-1" vertex="1">
          <mxGeometry x="1292" y="402" width="10" height="241" as="geometry" />
        </mxCell>
        <mxCell id="9g-GYjwAPG5GobWHmEZ0-0" value="Eva 2.0 High Level Architecture" style="text;html=1;strokeColor=none;fillColor=none;align=center;verticalAlign=middle;whiteSpace=wrap;rounded=0;fontSize=40;fontStyle=1" parent="8GRn8cEL_pyLPgJIwxRR-1" vertex="1">
          <mxGeometry x="-25" y="-187" width="645" height="20" as="geometry" />
        </mxCell>
        <mxCell id="t16Uza9_Ys-qwTTVJRN9-0" value="BYNAC" style="rounded=0;whiteSpace=wrap;html=1;fillColor=#FFFF00;fontSize=16;fontColor=#000000;align=center;strokeColor=#FFFFFF;gradientColor=#3399FF;" parent="8GRn8cEL_pyLPgJIwxRR-1" vertex="1">
          <mxGeometry x="94" y="1194" width="120" height="60" as="geometry" />
        </mxCell>
        <mxCell id="t16Uza9_Ys-qwTTVJRN9-4" value="" style="edgeStyle=segmentEdgeStyle;endArrow=none;html=1;strokeColor=#000000;fontSize=16;fontColor=#000000;endFill=0;" parent="8GRn8cEL_pyLPgJIwxRR-1" edge="1">
          <mxGeometry width="50" height="50" relative="1" as="geometry">
            <mxPoint x="842" y="1244" as="sourcePoint" />
            <mxPoint x="196" y="1182" as="targetPoint" />
            <Array as="points">
              <mxPoint x="842" y="1126" />
              <mxPoint x="196" y="1126" />
              <mxPoint x="196" y="1167" />
            </Array>
          </mxGeometry>
        </mxCell>
        <mxCell id="t16Uza9_Ys-qwTTVJRN9-7" value="" style="edgeStyle=elbowEdgeStyle;elbow=horizontal;endArrow=none;html=1;strokeColor=#000000;fontSize=16;fontColor=#000000;endFill=0;" parent="8GRn8cEL_pyLPgJIwxRR-1" edge="1">
          <mxGeometry width="50" height="50" relative="1" as="geometry">
            <mxPoint x="159" y="1183" as="sourcePoint" />
            <mxPoint x="453" y="1002" as="targetPoint" />
            <Array as="points">
              <mxPoint x="159" y="1002" />
            </Array>
          </mxGeometry>
        </mxCell>
      </root>
    </mxGraphModel>
  </diagram>
</mxfile>
